<svg id="Layer_1" data-name="Layer 1" xmlns="http://www.w3.org/2000/svg" viewBox="0 0 200.25 247.5"><defs><style>.cls-1{fill:#004b7f;}</style></defs><title>Hagstova Føroya</title><path class="cls-1" d="M65.06,2.95c-.31.75-.75,1.34-.94,1.34a.43.43,0,0,0-.43.39A.4.4,0,0,0,64.2,5a4.66,4.66,0,0,1,1.57.35c.94.39,1,.55.59,1.26-.63,1-1.34,1-1.61,0-.2-.71-.31-.75-1.22-.35s-1.18.79-1.06,1.85a1.59,1.59,0,0,1-.35,1.06.89.89,0,0,0-.2,1c.12.2,0,.51-.35.63s-.63.39-.63.59.28.24.59.12.59,0,.59.39-.12.63-.31.63c-.47,0-1.14,3.5-.75,3.9.2.2,0,.47-.47.63-.83.24-1.14,1-.43,1a.4.4,0,0,1,.39.43.22.22,0,0,1-.35.2c-.2-.12-.59.16-.91.67-1,1.61-2.48,7.56-2,8.27a3.87,3.87,0,0,1,.35.75c0,.2.08.43.12.59s.28,0,.55-.35c.47-.59.55-.59,1,.08s.31.79-1.06,1.18-1.61.59-2.36,2.87-.79,2.48-.2,2.91.51.47-.31.59l-.91.2,1,.39,1,.43-1.06.39c-.71.31-1,.71-1,1.26s.24.75.55.63.51.2.51,1.14.2,1.38.59,1.38a.61.61,0,0,1,.59.59c0,.35-.24.47-.59.35s-.59,0-.59.43-.12.59-.59.2c-.87-.75-1.26-.2-1.18,1.77a3.62,3.62,0,0,1-.16,1.77c-.16,0-.59.51-.94,1.18s-.55,1.18-.31,1.18c.63,0,.24,1.93-.51,2.48s-.63.55.35,1c.67.31,1,.71.87,1.06a.48.48,0,0,0,.2.67c.71.24-.87,2.28-1.77,2.28-.63,0-.71.12-.35.47s.28.67-.31,1.3a4.51,4.51,0,0,0-.87,2.76,4.34,4.34,0,0,1-.67,2.4c-.39.31-.43.51-.12.71.67.39.59,2.09-.12,2.36a1,1,0,0,0-.59.83c0,.71,1.81.83,2.13.08.08-.24.16.08.12.79s-.28,1.3-.75,1.42-.67.51-.55,1.57c.16,1.26.12,1.38-1.3,1.81-2,.59-2,.55-2-.35,0-.43-.16-.79-.39-.79s-.39-.28-.39-.59a.58.58,0,0,0-.55-.59c-.63,0-1.18-1.77-.79-2.44.2-.31-.16-.35-1.14-.2-1.38.2-2-.2-.94-.67.31-.12.24-.35-.28-.79a2.85,2.85,0,0,1-.87-1.61A5.37,5.37,0,0,0,38,62.4c-.35-.12-.31-.35.08-.83s.43-.79-.2-1.54a19.2,19.2,0,0,1-2.68-4c-.2-.59-.39-.63-.71-.31s-.67.12-1.26-.83A16.34,16.34,0,0,1,31,50.42a.57.57,0,0,0-.59-.51c-.55,0-.79-1.06-.67-2.87,0-.35-.08-.67-.28-.67s-.43.31-.51.67-.16-.28-.2-1.5c0-2.52-1-4.13-2.24-3.66a.9.9,0,0,1-1-.08A3.87,3.87,0,0,0,23.83,41c-1.26-.39-1.54-.35-1.73.16s-.28.55-.67,0a9.57,9.57,0,0,0-3.58-1.3c-1.73-.35-3.94-.87-4.92-1.06a21.46,21.46,0,0,0-2.6-.47,3.89,3.89,0,0,1-1.26-.39.83.83,0,0,0-.79-.08,4.11,4.11,0,0,1-1.85-.16,2.65,2.65,0,0,0-2,0c-.31.28-.55.24-.67-.12s-.28-.39-.67,0a1.14,1.14,0,0,1-1,.24c-.31-.12-.55,0-.55.24s.31.43.71.43a2.28,2.28,0,0,1,1.38.79c.55.67.55.79.08.79-1.1,0-.59,1.06.59,1.3.83.2,1.18.47,1.18,1.06,0,.43.2.79.39.79a.37.37,0,0,0,.39-.39c0-.2.28-.28.59-.16.83.35.75,1.26-.2,1.54s-1,.71-.16,1.42a3.91,3.91,0,0,1,1,1.46c.39,1,1.14.83,1.14-.24,0-.59.08-.59.59.08a1.17,1.17,0,0,1,.16,1.5c-.35.67-.31.75.39.51s.83-.08.83.59-.16.75-1,.55-1-.08-1,.43.2.59.59.47c.83-.35,1.1.39.31.87s-.67.39,0,.43c.35,0,.67.2.67.47s.12.31.28.2.47.2.79.79c.39.79.43,1.1.08,1.34-.63.35-.12,2.32.59,2.32a1,1,0,0,1,.79.47c.12.28.16.16,0-.28a1.16,1.16,0,0,1,.59-1.3c.47-.28.79-.31.79-.08s.28.39.59.39a.61.61,0,0,1,.59.59c0,.31-.16.59-.39.59a.42.42,0,0,1-.39-.39c0-.79-.75-.35-1.34.79s-.51,1.22.2,1.69a1.59,1.59,0,0,1,.75,1,3.71,3.71,0,0,0,1,1.57,2.34,2.34,0,0,1,.83,1.73.53.53,0,1,0,1,.28c.08-.28.47-.28,1.18,0,.94.35,1.06.28,1.22-.47s.2-.63.24.28,0,1.1-1.06.91c-1.54-.31-2.44.28-1.3.87a1.79,1.79,0,0,1,.83,1.3c0,.59.2.75.79.59,1.06-.28,1.46.51.63,1.14a.8.8,0,0,0-.31,1.22,5,5,0,0,0,3.27,2.44c1.54.31,1.89,1.06.75,1.42s-.67.75,1.26,1.34a2.75,2.75,0,0,1,1.69,1.26c.16.39.51.75.83.75.67,0,.75-.63.12-1-.31-.2-.24-.39.2-.63s.75-.31.79-.24.55.71,1.14,1.42a4.79,4.79,0,0,1,1.06,2.32c0,.87-.12.94-.94.75-.59-.16-1,0-1.14.28-.28.83.59,2.79,1.73,3.86.79.79,1,1.14.63,1.5s-.28.43.24.43c.35,0,.67.2.67.43s.2.28.39.16c.75-.47,2.44.94,2.16,1.77a.83.83,0,0,0,.47,1.1c1,.51,4,.55,4.25.08.12-.24.67-.28,1.22-.16.71.2.94.08.94-.35a1.18,1.18,0,0,0-.59-.94.59.59,0,0,1-.24-.87c.28-.43.51-.31,1,.47,1,1.54.63,2.44-.91,2.4-.71,0-1.26.08-1.26.28s.28.35.59.35a.61.61,0,0,1,.59.59c0,.55.12.51,1,0,1.38-.91,1.65-.43.63,1l-.83,1.18.83.24c.43.16.71.35.59.51s.31.55.94.94c1,.59,1.14.83.83,1.46a2.7,2.7,0,0,0,0,2.05c.2.71.31,1.38.2,1.46-.28.31-1-.35-.79-.75.16-.2,0-.35-.16-.35s-.43.35-.43.75a1.3,1.3,0,0,1-.47,1.06c-.31.2-.28.39.16.71a3.86,3.86,0,0,1,.91,1.22c.28.71.35.71.47.08s.75-.91,1-.24c.08.28.63.51,1.26.59,1.26.12,1.81-.83.91-1.54-.55-.39-.55-.59-.12-1.18s.59-.59,1-.12.35.63,0,.83c-.67.43,0,1,1.18,1,.63,0,1.26.16,1.38.39s-.28.39-1,.39c-1.18,0-1.22,0-.63.67a6.14,6.14,0,0,1,.91,1.81c.24,1,.16,1.1-.47,1-.43,0-1-.71-1.34-1.38-.59-1.3-1.3-1.65-1.77-.91-.12.24-.67.28-1.22.16-.79-.2-.94-.08-.94.59a1.19,1.19,0,0,1-.59,1.06c-.91.35-.71.83.31.75.47,0,.87-.28.87-.47a1.1,1.1,0,0,1,.31-.75c.16-.16.28.28.28.94,0,1.5-.47,1.85-1.65,1.18-1.61-.91-2-1.89-.71-1.89.43,0,.79-.28.79-.59,0-.79-.47-.75-1.61.16-.83.63-.94,1.06-.91,3.23a6.07,6.07,0,0,1-.39,2.79c-.47.31-.63,1.89-.16,1.89a.36.36,0,0,1,.31.39c0,.2-.39.39-.83.39-.75,0-.79.08-.31.63s.43.71-.16,1.14-.59.79-.43,1.69a5.36,5.36,0,0,1-.39,2.83c-.35.87-.43,1.57-.24,1.57a.39.39,0,0,0,.39-.39.39.39,0,0,1,.39-.39c.28,0,.28.24,0,.75a4.75,4.75,0,0,0-.39,1.69,2.47,2.47,0,0,1-.79,1.61c-.75.63-1,1.89-.87,4.09,0,.51-.12.91-.35.91-.47,0-.47,1.06,0,1.26.2,0,.43.51.51,1a2.63,2.63,0,0,0,.39,1.14,1.75,1.75,0,0,1,.28,1,3,3,0,0,0,2.16,2.28c.51,0,.87,1.61.63,2.91a.79.79,0,0,0,.43.67c.28.16.35.43.24.59s-.75,0-1.26-.39c-1.22-.79-1.77-.12-.79,1,.51.59.55.75.12.75-.87,0-1.46-.51-1.89-1.69-.39-1-2-1.57-2-.67,0,.2.35.39.83.39s.75.2.63.55a.61.61,0,0,0,.39.79c.51.2.51.35.08.87s-.35.63,1.1.35l1.65-.28-.24,1.54a5.28,5.28,0,0,1-.59,1.93c-.39.51-1.93.28-2.36-.39-.16-.24-.39-.28-.55-.16s0,.55.39.91a2.12,2.12,0,0,1,.63,1c0,.16.35.24.79.12.91-.24,1,.35.24,1.14a4.62,4.62,0,0,0-.79,1.38,1.8,1.8,0,0,1-1.06,1c-.47.12-.71.39-.55.63s.47.31,1,0c1.14-.59,1.26-.28.59,1.42a3.29,3.29,0,0,0-.39,1.85,5.07,5.07,0,0,1-.24,2.24c-.39,1.77-.59,1.93-2.09,2.4-2.09.67-3.42,1.85-3.42,3,0,.51-.16,1-.39,1.14a1.1,1.1,0,0,0-.39.83c0,.32.2.55.39.55s.39-.28.39-.59a1.4,1.4,0,0,1,.79-1,1.56,1.56,0,0,0,.79-1.18c0-1,.63-1,1.18,0s.51,1.61-.2,1.61c-.31,0-.59.16-.59.39s-.24.28-.51.16c-.59-.2-.83,2.44-.24,2.83.2.12.16.47-.12.75-1.18,1.3-1.5,1.77-1.5,2.16,0,.2-.28.39-.59.39-.75,0-.79.75,0,1,.43.16.35.59-.35,2-1.73,3.54-2.32,5-2.2,5.35a2.32,2.32,0,0,1-.31,1.18,12.67,12.67,0,0,0-.91,5.39c.08,1.06.35,1.5.91,1.65,1.1.28,1,1.54-.12,1.38-.51,0-.94.08-1,.28-.16.59.28,1.77.67,1.77.16,0,.24.35.12.83s-.43.71-.75.59a.37.37,0,0,0-.55.35.71.71,0,0,0,.75.59,1.26,1.26,0,0,1,1,.43.72.72,0,0,0,.71.24A2,2,0,0,1,30,194c1.06.55,1.54-.16,1.69-2.52.08-1.73.31-2.24,1.18-3l1.1-.91-1.38.12c-1.06.08-1.34,0-1.22-.47.2-.83.47-2.44.55-3.15,0-.43.47-.59,1.46-.51,1.77.08,3-.55,1.69-.91a1.68,1.68,0,0,1-1-1c-.16-.59-.08-.71.28-.39.55.47,1.18.12,1.54-.83a1,1,0,0,1,1.14-.59c.67,0,.91-.12.87-.63a.57.57,0,0,1,.51-.67c.51,0,.51-.12.12-.59-.67-.83.31-1.14,1.81-.59l1.14.43-1.18-1c-.75-.63-1-1-.59-1s.51-.08,0-.43-.47-.39.12-.2c1.22.39,2.36-.47,2.09-1.57-.16-.55-.08-.94.16-.94s.39-.39.39-.91a3,3,0,0,1,.39-1.46.87.87,0,0,0-.08-1.06c-.28-.35-.28-.51,0-.51s.43-.39.47-.91.12-.63.24-.35.47.12.94-.71.67-1.38.35-2c-.55-1-.94-1-.67,0s0,1.93-.75,1.93-.75-.63-.16-1,.43-1.38-.59-2.4-.94-1.89.24-1.54c.51.16.75.08.75-.31,0-.63-1.46-1.18-1.77-.63A.88.88,0,0,1,41,161c-.55-.2-.51-.35.31-1,.63-.51.71-.71.28-.55s-.71.08-.71-.12-.28-.28-.63-.12c-.51.2-.59.08-.35-.67s.2-.87-.79-.63-1,.2-.79-.63a3.77,3.77,0,0,1,.35-.91l1.77-.91a4.24,4.24,0,0,1,2-.67c.12.12,0,.39-.31.55a.68.68,0,0,0-.28.79c.16.24,0,.43-.35.43s-.51.16-.39.39,0,.39-.16.39a.43.43,0,0,0-.43.43c0,.28.43.31,1.18.16.91-.2,1.18-.12,1.18.35a.62.62,0,0,0,.59.63c.79,0,.75-1.42,0-1.73-.59-.24-.55-.35.24-1.22l.91-1-1.1-1c-.79-.71-1.22-.87-1.5-.59-.71.71-1,.51-1.5-1.18-.43-1.34-.39-1.65.08-2s.59,0,.79.94c.16.67.28.94.31.55,0-.59.16-.59.83-.2s.91.39,1.5-.39.87-.87,1.77-.51,1.14.31,1.3-.16a1.18,1.18,0,0,0,0-1c-.12-.2,0-.39.2-.39s.31-.24,0-.79c-.55-1.06-1.57-1-1.57.08,0,.47-.12.71-.28.59s-.47-.08-.75.16c-.59.51-2.91.83-2.91.43a1.15,1.15,0,0,1,.35-.67c.55-.63.91-2.56.43-2.56-.2,0-.39-.35-.39-.79,0-1,.47-1,1.34,0,.59.67.75.67,1.93.16a4.07,4.07,0,0,0,1.73-1.54c.51-1.06.43-1.14-.67-.47s-2-.16-1.06-1a2,2,0,0,1,1-.63c.35,0,1.22-2.32,1.22-3.27,0-.16-.43-.28-1-.28s-1-.16-1-.31c0-.51,2-1.3,2.44-1,.24.16.31-.12.24-.67-.16-1.18-1.1-1.46-1.38-.39-.12.47-.35.83-.51.83-.67,0-1.06-1.1-1.1-3.23,0-1.69.12-2.2.51-2,1,.39,1-.63,0-1.57a7,7,0,0,0-1.5-1.14c-1-.31.24-1.1,1.42-.91.71.12,1,.12.79,0-.71-.31-.63-1.34.08-1.34.31,0,.59.16.59.39s.51.39,1.18.39c.87,0,1.1-.16.94-.59s.16-.94.67-1.42.71-.71.47-.55c-.67.31-.63-.28,0-1.22.55-.71.59-.71,1.14,0s.55.67,1.22,0,.63-.71,0-1.18c-.39-.28-.83-.43-1-.35s-.31-.08-.31-.43a.52.52,0,0,1,.67-.51c1.26.2,1-1.14-.24-1.57-.67-.24-1.22-.63-1.22-.91s-.16-.31-.59,0-.59.39-.59-.16a.63.63,0,0,0-.63-.63c-.31,0-.47.16-.35.39.35.59-.16.47-.83-.2-.51-.47-.51-.63-.08-.79A4.23,4.23,0,0,1,51,118c.59.47.75.47,1.18-.12.24-.35.59-.55.75-.39s.51-.08.79-.51c.47-.63.47-.79,0-1.06a1.44,1.44,0,0,1-.55-1.18c0-.71.08-.75.39-.28s.43.51.75,0c.51-.79-.2-2.05-.94-1.77-.43.2-.59,0-.59-.79s.24-1,.59-1,.59.2.59.43c0,.63,1,.2,1-.47.16-2.05,2-3.42,3-2.36a1.7,1.7,0,0,0,1.06.43c.94,0,4.17,1.65,3.66,1.85-.71.28-.63.91.08.91a1,1,0,0,1,.83.59c.16.31.39.47.63.35.43-.28,1.54,1.06,1.22,1.5a2.36,2.36,0,0,0,.08,1.14c.2.55.47.71,1,.55,1.06-.35,2.76.2,2.52.79s.47,1.14.83.59,1-.47,1,.2a.58.58,0,0,0,.55.59c.67,0,3,2.32,3,3,0,.24.47.43,1,.43a2.71,2.71,0,0,1,1.42.43c.28.28-.12.35-1.22.31s-1.61.08-1.61.35c0,.63,1.81,1.42,2.56,1.14.31-.16.59,0,.59.24s-.39.43-1.18.24-1.18-.08-1.18.35.39.59,1,.59c.91,0,1,.12.75,1.06-.31,1.3-.87,1.77-1.85,1.54-1.77-.43-2.4.91-1.26,2.64.59.91.39,2.79-.24,2.4s-.91,1.14-.24,1.61c.83.59.91,1.93.12,1.65s-1.18,1-.39,1.57c.63.47.63.51-.16.51-.59,0-.87.24-.87.75,0,.91.87,1.57,1.1.91s1.26.39,1.26,1.06c0,.24.55.43,1.18.43s1.18.12,1.18.24c0,.51-1.18,1.34-1.89,1.34-1.42,0-1.93.39-1.77,1.34a2.7,2.7,0,0,0,1,1.38c.75.47.79.43.63-.51-.24-1.22.28-1.34.87-.28s.51,1.22-.2,1.22c-.31,0-.59.35-.59.79a1.35,1.35,0,0,1-.67,1.1c-.55.35-.55.43.24.83.47.28.75.63.63.87s0,.35.16.35.43-.28.43-.59c0-1,.59-.63.67.43,0,1.22.87,1.85,1.57,1.26.31-.24.63-.35.71-.24.39.35-.28,1.5-.83,1.5s-.47.2-.24.67a11,11,0,0,1,.63,2.2c.2,1,.47,1.46.79,1.34a.9.9,0,0,1,.94.2c.24.24.51,0,.83-.87a2.36,2.36,0,0,1,1.22-1.46,1,1,0,0,0,.79-.83c0-.51-.08-.51-.71.08s-.79.59-1.5-.35c-.39-.55-.87-1-1-1-.31,0-.16,1.85.2,2.24a.94.94,0,0,1,.28.67c0,.2-.35,0-.75-.43-.67-.71-.71-1.06-.39-2.24s.47-1.38,1.18-1c.43.24.67.59.55.79a.39.39,0,0,0,.16.55.43.43,0,0,0,.63-.2.78.78,0,0,1,.83-.2c.79.31,1.14-.79.63-1.85l-.43-.87v.87c0,.51-.28.91-.59.91-.55,0-.63-1.81-.12-2.64a3.07,3.07,0,0,0,.28-1.34c0-2.44.08-2.72.43-2.52a1.39,1.39,0,0,1,.35,1,1.51,1.51,0,0,0,.79,1.18c.75.39.79.31.79-1.54a4.32,4.32,0,0,1,.35-2.16c.51-.31.12-1.57-.83-2.6-.55-.59-.67-.94-.35-1.34a.68.68,0,0,0,.12-.83c-.16-.2,0-.2.43-.08.55.2.71.12.59-.39a1.25,1.25,0,0,0-2-.55c-.28.28-.24.59.12,1s.39.59-.12.59a1.35,1.35,0,0,0-1,.67c-.35.59-.47.63-.79.16a1.33,1.33,0,0,1,0-1.34c.43-.79-.24-2-.87-1.61-.47.28-1.54-.83-1.54-1.57s-1.5-2.32-2-2c-.24.16-.39.08-.39-.12s.47-.55,1-.83c.91-.39,1-.35.75.31a.94.94,0,0,0,.2,1c.2.12.39,0,.39-.2s.31-.39.71-.31.67.51.67,1.46c0,1.1.16,1.34.91,1.42.47,0,.87-.08.87-.28a1.3,1.3,0,0,1,0-.43c.43-1.18.59-3.74.28-4.13s-.28-.47,0-.47a.85.85,0,0,1,.63.47c.12.28.12.12,0-.39-.16-.71,0-.87.71-.87s.83-.08.28-.51c-.87-.67-1.26-2.76-.47-2.48a3.59,3.59,0,0,0,.94.24c.19,0,.35.87.35,2,0,1.65-.16,2.05-1,2.6s-1,.87-.75,2.09c.24,1.38,1.81,3.19,2.76,3.19a1.91,1.91,0,0,1,1.06.87c.51.75.63.79.63.24a1.2,1.2,0,0,0-.67-1.06c-.55-.28-.71-.71-.55-1.65s0-1.18-.24-1-.47-.16-.55-.71a1.31,1.31,0,0,1,.63-1.54c.71-.51.75-.59.16-.59a.73.73,0,0,1-.71-.67c0-.51.12-.55.55-.2s.63.31.79.08a.43.43,0,0,0-.16-.63c-.83-.51-.35-1.3,1.18-1.93,2-.79,2-.79,2,.12a1.12,1.12,0,0,0,.79,1c1,.31,2.13,2,1.77,2.56-.12.2,0,.39.35.39a1.54,1.54,0,0,0,1.06-.87l.47-.91.39,1.1c.28.83.55,1,1.06.87a2,2,0,0,1,2.36,1.65c0,.63.24.91.79.91s.79-.28.79-.59.16-.59.35-.59.28.35.16.79,0,.79.39.79.67.35.79.79a1.06,1.06,0,0,0,1,.79c.55,0,.83.24.83.79,0,.94,1.34,1.69,2.6,1.46,1.69-.31,2.4,2.64,1.06,4.13-.55.63-.59.87-.16,1.57.28.43.39.87.28,1-.35.35.55,1.69,1.14,1.69.31,0,.59.2.59.43s-.43.31-1.22.16c-1.1-.24-1.18-.2-1,.51.2.51,0,.87-.39,1s-.55.35-.43.51,0,.51-.2.83c-.67.79-.75,3.31-.08,3.07s1.06.79.71,1.38.51.39,1.14-.2a.92.92,0,0,1,1-.28c.71.47-.71,3.07-1.85,3.39-.75.16-.83.39-.59,1.3s.16,1-.35.55-.71-.35-1.22.67-.51,1.18.2,1.34c.51.16.67.39.47.71s-.35.39-.47,0c-.2-.63-.87-.59-.87.08a1.48,1.48,0,0,1-.55,1c-1.06.91-1.46,6.3-.55,7.4.75.94,1.61.63,1.34-.47-.2-.79-.12-1,.51-1s.75-.2.59-.55c-.39-1,1.42-3,2.68-3,.59,0,1.1.2,1.1.43s-.16.28-.39.16-.39,0-.39.35-.16.63-.39.63-.39.35-.39.79.28.79.59.79.59-.35.59-.94c0-.75.24-.94,1.5-1.18a4.68,4.68,0,0,0,2.6-1.38c.94-1,1.22-1.1,1.85-.71.94.59,1.54,0,.63-.71-.71-.51-.67-.55.08-.79a2,2,0,0,0,.94-2.68,4.12,4.12,0,0,1-.47-1.61c-.08-1,0-1.06.47-.59.31.31.51.67.39.83a1.45,1.45,0,0,0,.24,1c.39.67.43.63.47-.08a4,4,0,0,0-.67-3c-.67-.75-.28-1.34.51-.71.28.24.51.28.51.12s-.35-.59-.79-.87a1.88,1.88,0,0,1-.79-1.46c0-1.06.67-1.34,1-.39.16.31.43.59.67.59s.31-.12,0-.43-.24-1.93.28-1.93c.2,0,.43.24.51.47s.24.12.24-.39a3.43,3.43,0,0,0-.59-1.81c-.39-.63-.47-1-.2-1.22s.43-.12.43,0c0,.59,1.14-1.22,1.18-1.81,0-.75,1.85-1.65,2.2-1.1.12.2-.12.63-.59.94-.87.63-.75,1.54.2,1.18a.67.67,0,0,1,.79.24c.2.31.39.28.71-.12.55-.67,2.68-.87,3-.28a1.63,1.63,0,0,0,2.16.28,2.94,2.94,0,0,1,2-.12c1.14.2,1.3.35.79.63a1.42,1.42,0,0,0-.63,1.1c0,.79,1.34,1.77,1.93,1.42.2-.12.43.16.55.59.2.67.43.79,1.22.59a1.57,1.57,0,0,1,1.57.35,1.94,1.94,0,0,0,1,.59c.2,0,.51.35.63.79.2.63.47.75,1.1.55.83-.24.83-.2.2.47s-.63.71,0,1.14.51.63.16,1.3a5,5,0,0,0-.43,2c0,.67-.16,1.22-.39,1.22s-.39.35-.39.75a2.46,2.46,0,0,1-.59,1.38c-.75.75-.75.91.12.83,1.06-.08,1.73-.63,1.5-1.26a1.22,1.22,0,0,1,.35-1.14c.31-.35.59-.51.59-.35s.35,0,.79-.2.79-.31.79,0,.2.31.47.16.35-.08.2.39a4.48,4.48,0,0,0-.28.87c0,.08-.47.16-1.06.16-.94,0-1,.12-.51.51.71.59,1,2.48.43,2.83a.49.49,0,0,1-.67-.35c-.24-.59-2.4-1.3-2.79-.91s1.46,2.64,2.09,2.64c.31,0,.55.35.55.83,0,.63.16.75.83.55s.79-.12.67,1-.2,1.3-1.81,1.34a3.51,3.51,0,0,1-2.13-.47.71.71,0,0,0-.75-.31c-.43.28,0,1.42.79,2.09.55.43.51.47-.28.28-1.06-.31-1.54.55-.91,1.73.35.63.31.87-.24,1.14s-.55.51.24,1.81.87,1.42.16,1.42-1.69.71-1.69,1.3c0,.16.2.2.43,0a.58.58,0,0,1,.71.08c.43.63,2.36,1.34,2.6.94a.63.63,0,0,1,.75-.16c.31.12.63-.12.75-.59a3,3,0,0,1,1.46-1.42c.71-.35,1.14-.47,1-.24s-.12.43.12.43a4.14,4.14,0,0,1,1,.24c.35.12.63,0,.63-.2s-.28-.43-.59-.43-.59-.2-.59-.39.24-.39.51-.39.71-.51,1-1.1a3.39,3.39,0,0,1,1.81-1.65c1.14-.43,1.26-.59.83-1.06a2.35,2.35,0,0,0-1.42-.51c-.67,0-.75-.12-.39-.51s.28-.67.12-.83.08-.24.51-.2c.91.16,2.48-1.22,2.24-1.93s.59-.63.94,0c.2.31.39.24.63-.2a1.3,1.3,0,0,1,1.38-.55c1.22.16,1.65-.67.51-1-.43-.12-.79,0-.79.16a.35.35,0,0,1-.35.35c-.2,0-.35-.79-.31-1.77s.2-1.77.39-1.77a.32.32,0,0,1,.28.35,2.72,2.72,0,0,0,1.61,1.61c.67,0,.35-.71-.43-.91-.43-.12-.79-.39-.79-.67s.31-.35.79-.2.79.08.79-.35a1,1,0,0,0-.79-.83,1.16,1.16,0,0,1-.79-1.22c0-.51-.16-.94-.35-.94-.35,0-.2-1.93.16-2.28a3.48,3.48,0,0,1,1.54.31c1.42.47,1.93,1.18.83,1.18-.31,0-.59.16-.59.39a.42.42,0,0,0,.39.39c.67,0,.43.71-.28.87-.51.12-.59.24-.24.43s.87-.08,1.46-.71c.87-.94,2.16-1.06,1.61-.16-.16.2.31.35.94.35.91,0,1.22.2,1.22.71,0,1.06.39,1.3,1.26.83a1,1,0,0,1,1.38.12c.35.28.67.47.67.39s.35,0,.71.12a.68.68,0,0,1,.43.83.64.64,0,0,0,.43.79.93.93,0,0,1,.63.79c0,.63.67.75.87.12s1.5,0,1.5.87c0,.51.47.87,1.57,1.18.87.28,1.57.63,1.57.79,0,.55,1.38.75,2.68.39.83-.28,1.26-.24,1.26,0s.28.31.59.16.59,0,.59.35a.65.65,0,0,0,.51.63,5,5,0,0,0,2.91-.51c.59-.47,1.85-.08,1.5.43a.47.47,0,0,0,.2.63c.83.51.35.91-.71.63a1.93,1.93,0,0,0-1.73.12c-.59.43-.59.51.08.94a3.31,3.31,0,0,0,1.89.24,1.48,1.48,0,0,1,1.42.2c.43.63,1,.51,1-.2,0-.47.28-.59,1.18-.47.63.08,1.22,0,1.3-.24s.24,0,.39.51c.16.71,0,.94-.55,1.1-.79.24-1.06.91-.31.91.24,0,.35.28.24.59s.08.55,1.1.51c.75,0,1.38-.24,1.38-.43s-.35-.28-.79-.16a1.11,1.11,0,0,1-1.06-.2c-.12-.28,0-.31.24-.16s.71-.24,1.14-1.3c.63-1.54,1.57-2.05,1.34-.75-.16,1,.63,2.68,1.3,2.68a.59.59,0,1,0,0-1.18c-.31,0-.59-.35-.59-.79,0-.91.59-1.06.94-.2s.83.71,1.34-.35c.39-.83.31-1-.63-1.38a8.79,8.79,0,0,0-1.61-.51c-.63-.12-1.54-.83-3.15-2.36-1.18-1.14-1.85-1.1-1.1.12.55.91.35,1.1-1.34,1.22-1.06.08-1.38,0-1.46-.67a2.65,2.65,0,0,0-1.38-1.42,2,2,0,0,1-1.38-1.85c-.12-1.26-1.26-1.85-1.26-.67,0,.31.2.59.39.59.71,0,.39,1.14-.43,1.57a3.13,3.13,0,0,0-1.14,1.3l-.35.87-.28-.91a1.12,1.12,0,0,0-1-.87c-.67,0-.71-.12-.31-.59.28-.31.63-.59.83-.59s.35.28.35.59c0,1.06.67.59.94-.63.35-1.77.31-1.85-.55-2.13s-.79-.28.08-1c.71-.59.75-.75.28-.79a2.31,2.31,0,0,1-1.34-.79,2.39,2.39,0,0,0-1.38-.79,1.81,1.81,0,0,1-1.18-.59,2.44,2.44,0,0,0-1.61-.59c-.59,0-1.22-.16-1.34-.39a11.6,11.6,0,0,0-3.42-1.73,1,1,0,0,1-.71-.87c0-.47-.28-.59-1-.47s-1,0-1-.31c0-.63-.63-.75-1-.16s-1.3.43-1.57-.39a1.17,1.17,0,0,0-1.14-.79c-.63,0-1.06-.39-1.57-1.42-.63-1.38-.71-1.42-1.38-.79s-.79.63-1.54-.31a2.39,2.39,0,0,0-1.38-1,1.08,1.08,0,0,1-.83-.59c-.12-.31,0-.59.16-.59s.39-.35.39-.75c0-.91.63-1.42,1-.83s1.06.47,2.13-.39c.79-.67.83-.87.39-1.42s-.91-.55-1.81-.43-1.3.08-1.3-.2-.24-.31-.55-.2-.63-.08-.75-.55c-.24-.87.12-1,.83-.28s1.73.67,2.68-.39,1.3-3.62.47-3.62c-.24,0,0-.43.67-.94s.91-1,.63-1.18c-.63-.39-.51-2.68.16-3.66.55-.83.55-.91-.2-1.38s-1.06-1.5-.35-1.5A8.53,8.53,0,0,0,157,134c1.73-1.18,1.77-1.3.91-1.5-1.42-.31-2-1.5-1.06-2.16a1.22,1.22,0,0,0,.51-1.38c-.12-.43,0-.71.16-.55s.35-.08.35-.39a.62.62,0,0,1,.59-.63c.71,0,.75-.47.12-1.1-.28-.28-.31-.47-.16-.47s.12-.28-.16-.59c-.39-.47-.39-.59.08-.59a1.65,1.65,0,0,1,1,.47c.27.27.47.39.51.28a6.26,6.26,0,0,1,.55-2.24,1.93,1.93,0,0,0-.2-1.1c-.24-.59-.24-.94,0-.94s.28-.28.12-.67-.08-.59.63-.39.94,0,1.26-.79a2,2,0,0,1,1.14-1.18c1-.28,1-.71,0-1.73-.59-.59-.94-.71-1.34-.35s-.59.28-.67.08-.55-.51-1.06-.67c-.87-.28-.91-.2-.67.75.35,1.38,0,2-.83,1.22a1.39,1.39,0,0,0-1.3-.39c-.79.24-1.85-1.1-1.65-2.09a.34.34,0,0,0-.31-.47c-.51,0-.08-2,.63-2.64a2.14,2.14,0,0,1,1.34-.51h.83l-.87,1.57c-.47.87-.79,1.65-.67,1.77a7.94,7.94,0,0,0,2.44.31c1.93.12,2.4,0,3.31-.83s1-.94.16-.75c-.59.16-1,0-1.14-.35a1.16,1.16,0,0,0-1.06-.55c-.79,0-.79,0-.08-.43.39-.24.83-.28,1-.12a3.3,3.3,0,0,0,1.81.43c1.38.08,1.5,0,.91-.43-.79-.55-1-2.79-.31-3.19a1,1,0,0,0,.2-1c-.2-.55,0-.83.71-1.1,1.34-.51,1.61-1.61.83-3.15-.55-1.1-.55-1.38-.12-1.65s.39-.39-1.5-1c-.28-.08-.51-.31-.51-.51s.24-.31.55-.2c1.1.43,2.2-.59,2.2-2,0-.94.2-1.38.59-1.38a.62.62,0,0,1,.59.63c0,.31.2.47.43.35A.81.81,0,0,0,168,97c-.08-.24.24-.83.71-1.3a5.44,5.44,0,0,0,1.14-2.87,5,5,0,0,1,1-2.68c1-.94,1-2.91,0-2.91a2.1,2.1,0,0,1-1.57-1.69,2.94,2.94,0,0,1,1.22-.2c1.42,0,2.6-.87,1.26-.87-.83,0-.91-.28-.35-1.85.16-.51.51-.79.83-.67s.51-.12.43-1.18,0-1.42.39-1.42c.83,0,1.06-1.5.39-2.44s-.87-1.89-.39-1.38c.16.16.55-.31.91-1,.55-1,.59-1.38.2-1.85a1,1,0,0,1-.16-1.18,1.36,1.36,0,0,0-.2-1.46c-.67-1-.79-1.85-.24-1.5.24.12.59-.12.79-.55.59-1.06.55-1.61-.16-1.61-.39,0-.24-.31.39-1a3.09,3.09,0,0,0,1-1.34c0-.2.35-.47.79-.63.59-.2.83-.75,1-2.2A6.1,6.1,0,0,1,178,59.1a.39.39,0,0,0,.16-.55,1.52,1.52,0,0,1,.2-1.18c.31-.59.31-1,0-1.34-.47-.55.16-3,.79-3,.43,0,0-1.26-.59-1.65-.31-.2-.28-.31,0-.31.55,0,1.65-2.36,1.61-3.42,0-.39.2-1.93.39-3.46a8,8,0,0,0,.12-3.15c-.51-.71-.43-2.56.12-2.79.71-.28.31-2.05-.59-2.56s-.94-1.1.12-.83c.67.16.79.08.59-.43a3.78,3.78,0,0,1,.16-1.93c.24-.87.24-1.34,0-1.42a.31.31,0,0,1-.16-.51c.12-.2-.24-.55-.79-.83-1.22-.55-1.34-1.1-.2-1.1s.75-.94-.35-1.1c-.47-.08-.87-.39-.87-.71a.54.54,0,0,0-.55-.55c-.31,0-.63-.39-.71-.91-.12-.87-.31-.94-3-1.18a1.88,1.88,0,0,1-1.26-.67c-.2-.31-.39-.39-.39-.16,0,.63-1.42.94-1.93.43-.35-.35-.67-.31-1.22,0a4,4,0,0,1-1.06.47c-.47,0,.39-.71,1.65-1.34l1.18-.63-1.26-.47c-.71-.28-1.3-.63-1.3-.79s-.35-.31-.79-.31c-.91,0-1.06.71-.2,1s.75.94-.43,2.16c-.91.94-.94,1.14-.47,1.89.35.59.39.94.08,1.14a2.07,2.07,0,0,0-.39,1.46,2.22,2.22,0,0,1-.75,1.85l-.79.63.83,1.14a2.29,2.29,0,0,1,.51,2.09,11.74,11.74,0,0,0-.31,2.28c0,.75-.2,1.22-.43,1.06s-.39.24-.39.94a2.17,2.17,0,0,1-1,1.89c-.91.67-1,.87-.55,1.57s.39,1.06-.55,2.64l-1.06,1.85.91.75.91.75-.87-.24c-1.06-.24-1.26.75-.35,1.69.39.35.47,1,.35,2.13-.12.94-.08,1.57.2,1.57s.47.35.59.75c.16.59-.08.79-1.26,1a6.87,6.87,0,0,0-2,.59c-.47.31-.47.47.12,1.14.87,1,.35,1.46-.63.59-.71-.67-.75-.67-.63.31a2.43,2.43,0,0,1-.39,1.69c-.39.47-.43.75-.08,1.18s.31.59-.16.79c-.83.31-.75,1,.12,1,.59,0,.59.08.08.39s-.47.51.31,1.14c1,.87,1.1,1.22.31,1.22-.35,0-.47.28-.35.79s0,.79-.24.79-.31.43-.16,1.18.08,1.18-.12,1.18c-.47,0-1.5,2.32-1.18,2.64.12.12.47,0,.83-.28a1.28,1.28,0,0,1,1.14-.28c.31.12.67,0,.75-.24s.31-.35.47-.2.08.55-.2.91-.35.59.35.59c.47,0,.75.16.63.39a1.36,1.36,0,0,1-1,.39c-.75,0-1.93.83-1.93,1.34s-1.77,2-2.09,1.89c-.16,0-.59.59-.91,1.38a19.33,19.33,0,0,1-1.18,2.56c-.59,1.1-.31,1.5.51.67.51-.51,1.85.67,1.46,1.3-.16.24-.39.24-.67,0a1.69,1.69,0,0,0-1-.43c-.31,0-.43.12-.31.28s.08.47-.16.75-.28.55,0,.75c.79.51.39,1.38-.63,1.38s-1,.08-.75,1.46c.31,1.81.51,2.05,1,1.3.28-.43.39-.47.39-.08a.35.35,0,0,0,.51.35c.24-.08.43-.55.35-1s0-.87.2-.87a1.21,1.21,0,0,1,1.18,1.18c-.16.94-1.93,2.76-2.72,2.76a.68.68,0,0,0-.71.75,1,1,0,0,1-.83.94c-.47.12-.71.39-.55.67a.72.72,0,0,0,.83.24c.31-.12.43,0,.28.39s.08.55.63.55a1.58,1.58,0,0,1,1.22.79c.28.55.28.79,0,.79-.75,0-.39.71.47.91l.87.24-.94,1c-.71.75-1.22.94-1.85.79s-.91,0-.91.24-.35.35-.79.24a1.16,1.16,0,0,0-1.42,1.5c.12.31,0,.59-.28.59-.63,0-1.93,4.41-1.42,4.88a1.81,1.81,0,0,1-.2,2.32c-.75.71-1,2.48-.31,2.36.24-.08.47.16.47.47s-.35.59-.79.59c-.83,0-1.06.59-.35,1a.75.75,0,0,1,.16.91.76.76,0,0,0,.2.87c.87.51,0,2.28-1.22,2.56s-1.46.75-.75,1.18c.2.12.24.51.12.83a.81.81,0,0,0,.28.94c.83.51,1.1,2.83.59,5-.28,1.22-1,1.81-1,.87,0-.2-.2-.28-.43-.12s-.24.39.2.63c.94.55.75,1-.43,1.18s-1.1.24-1.22,2.56c-.08,2,0,2.48.47,2.48,1.1,0,1.06.75-.12,1.38a3,3,0,0,0-1.61,2.2,3.13,3.13,0,0,1-1,1.77c-.39.16-.43.47-.12,1.38a3.42,3.42,0,0,1,.2,1.65,3.23,3.23,0,0,0,.16,1.42c.28.67.59.87,1.14.71s.91,0,1,.16-.94.55-2.09.39c-.83-.12-.59.79.24,1s1.5,1.93,1.06,2.36-1.81-.35-1.81-.91a.58.58,0,0,0-.59-.55c-.71,0-.75.47-.12,1.1.31.31.31.59-.08,1.06-.71.83-1.1.75-1.26-.31-.12-.75-.35-.87-1.61-.83-1.81.08-2.05.28-1.54,1.22a1.38,1.38,0,0,1,.08,1.3c-.28.43-.59.31-1.73-.51a5,5,0,0,0-1.93-1.06,1,1,0,0,1-.83-.63c-.39-1-.28-1.42.35-1.18.39.16.59,0,.59-.63s-.08-.75-.67-.28-.59.47-.12-.31.47-.94,0-1.46a1.54,1.54,0,0,0-2.32-.16c-.39.39-.55.31-.71-.39-.16-.47-.43-.87-.63-.87s-.28-.16-.12-.35c.31-.55-.59-1-1.06-.51-.91.91-3.46-1.22-3.46-2.83,0-1.06-1-2.09-1.38-1.42a1,1,0,0,1-.71.39c-.28,0-.08-.35.43-.75,1-.91,1.1-1.3.2-.94-.59.2-.63.12-.2-.31a2.11,2.11,0,0,0,.47-1.06c0-.39-.35-.24-1,.47-.94,1-2.16,1.38-2.16.63a.39.39,0,0,1,.39-.39.36.36,0,0,0,.39-.35c0-.2-.63-.35-1.42-.35-1.93,0-2.4-.59-1.38-1.61.47-.47.83-.63.83-.39s.24.28.67-.08.67-.43.79-.08a.94.94,0,0,0,.83.51c.47,0,.39-.2-.31-.67a6.82,6.82,0,0,1-1.26-1.06c-.2-.31-.51-.28-1.06,0a1,1,0,0,1-1.42,0c-.67-.47-.59-.55.59-.94,2-.71,3.15-.59,3.15.24A2.53,2.53,0,0,0,122,131c.28,0,.47-.35.47-.79s.2-.79.39-.79a.4.4,0,0,0,.39-.43c0-.31-.2-.31-.59,0-.79.67-1.22-.39-.63-1.54s.55-2.4,0-2.44c-.79,0,1-.71,2-.71.47,0,.87.16.87.39s-.31.31-.75.16-.79,0-.94.67c-.28,1.06,0,1.42.59.79a1.84,1.84,0,0,1,1.18-.47.77.77,0,0,0,.75-.71c0-.39.12-.47.24-.2.2.59.91.67.91.16,0-.2-.79-.79-1.73-1.34-1.3-.71-1.85-.87-2.2-.51s-.51.28-.79-.16-.12-.63.91-.79c.75-.12,1.26-.43,1.3-.79.08-1.26.67-2.36,1.38-2.56a1.2,1.2,0,0,0,.75-1.06c0-.67-.08-.71-.59-.31s-.75.39-1.06.08-.28-.67.28-1.26.67-1,.28-1.57c-.79-1.3-.59-1.69.71-1.42.79.16,1.26,0,1.34-.28a20.1,20.1,0,0,0,.75-5.59c-.31-.83-.91-.71-.91.16s-.67,1.5-1,1.14a5.1,5.1,0,0,1,.24-1.69c.24-.87.47-1.93.55-2.36a2.82,2.82,0,0,1,.2-.79c.12,0,.2-.67.43-3.62.08-.94.31-1.69.47-1.69.55,0,1.26-.94,1.26-1.61a2.4,2.4,0,0,0-.55-1.3c-.63-.75-.63-.71.87-1.34.71-.31,1.06-.71.94-1a.85.85,0,0,1,0-.83c.35-.35.35-3,0-3-.16,0-.39.35-.51.83-.2.63-.39.71-.71.35s-.24-.63.47-1.18c.55-.39,1.18-.63,1.46-.51s.39-.24.31-1,0-1.22.24-1.22c.39,0,.28-1.81-.16-2.24-.16-.16-.35.12-.51.59-.24,1-.63,1.1-1.46.24s-.79-1.46.16-.94c.67.35.79.31.79-.31a1.92,1.92,0,0,1,.91-1.38c.79-.59.79-.63.12-.63-.43,0-.63-.16-.51-.31s0-.59-.39-1c-.71-.79-.67-.79.47-.51.91.24,1.06.2.71-.2s-.28-1.54.28-1.54c.2,0,.51.47.71,1.06.39,1.1.39,1.06.43-.39,0-1.14-.12-1.46-.63-1.46s-.2-.28.59-.63c1.22-.63,1.46-1.1,1.34-2.64,0-.35.12-.67.31-.67.63,0,.43-1.57-.24-1.85-.35-.12-.47-.35-.28-.47.43-.28,1.89-4.8,1.77-5.31-.08-.16.08-.55.31-.83s.24-.63-.2-1a2,2,0,0,1-.59-1.3c0-.75,0-.79.79-.08s.79.67.79,0c0-.35-.16-.55-.39-.43s-.39.08-.39-.16a1.08,1.08,0,0,1,.51-.71c1.1-.71,2.24-4.88,2.09-7.75,0-1.14.12-1.57.67-1.77s.67-.31.12-.79c-.75-.63-.83-1.22-.12-1.22.35,0,.47-.39.35-1.18s0-1.18.31-1.18.43-.51.35-1.3a5.68,5.68,0,0,1,.24-2,3.55,3.55,0,0,0,0-1.85c-.12-.67,0-1.18.16-1.18s.39-.35.39-.75a1.39,1.39,0,0,1,.39-1c.59-.35.47-1.65-.24-2.32-.55-.59-.55-.63,0-.63,1.14,0,.43-.91-1.14-1.42-1.38-.51-1.46-.47-1.22.24.16.55.08.79-.31.79-.71,0-1-.63-.75-1.85s1.1-1.14,2.83,0l1.42.94-.08-1.06c0-.55-.12-1.1-.12-1.18s-.31.12-.71.39c-.59.51-.59.47-.08-.31.59-1,.24-1.61-.51-1a4.61,4.61,0,0,1-1.73.59c-1,.12-1.22,0-1-.43a2.85,2.85,0,0,1,.94-1.14c.39-.27.71-.67.71-.91,0-.67-1.14-.35-1.69.47-.31.43-.67.67-.79.47-.31-.47.12-1,1.42-1.65s1.42-1.38.12-1.06c-.55.12-1.06.08-1.22-.16a5.24,5.24,0,0,0-1.57-1c-.75-.35-1.38-.91-1.38-1.22s-.28-.55-.87-.39c-1,.28-2.28-.35-2.28-1.14,0-.59-.2-.59-2.36.16-.47.16-.51.08-.08-.35.67-.71.59-1.65-.12-1.38-.31.12-.59,0-.59-.16a.4.4,0,0,0-.43-.39c-.28,0-.35.39-.2,1,.24.87-.24,2.09-1.77,5a4.18,4.18,0,0,0-.35,1.65,2.36,2.36,0,0,1-.55,1.42c-.47.35-.51.71-.2,1.5s.28,1.14-.39,1.61c-1.06.67-1.06,1.22,0,1.22.47,0,.71.12.59.24s.12.59.59,1c.63.59.71.87.35,1.3a1.27,1.27,0,0,1-1.22.35c-.59-.16-.79,0-.79.63,0,.47-.24.83-.63.83s-.47.2-.35.39a.8.8,0,0,1-.16.91c-.28.35-.28,1,0,2.2.35,1.34.31,1.77-.08,2a1.08,1.08,0,0,0-.28,1.14c.12.47,0,.94-.16,1.06s-.28.59-.12,1,0,.94-.24,1.1c-.71.43-.08,2,.83,2,.43,0,.67.16.55.39a1.33,1.33,0,0,1-1,.39,5.55,5.55,0,0,0-2.32,1.85c-1.61,1.81-1.61,1.81-.83,2.56,1,.94,1,1.5,0,1.77-.43.12-.71.43-.59.71a1,1,0,0,1-.24.91c-.31.31-.31.59,0,1s.35.63,0,1c-.55.55-.79,4.33-.28,4.64a1.71,1.71,0,0,1,.35,1.22c0,.75.16.94.63.75a4.49,4.49,0,0,1,.79-.24c.08,0,0-.31-.12-.67s0-.39.63.24c1.06,1.06,1,2.68-.12,2.48-.71-.12-.71-.08-.24.55s.51.63-.35.35-.87-.16-.67.67l.24.91-.43-.91c-.28-.47-.63-.87-.83-.87-.47,0-.39,1.06.16,1.93.63,1.06-.2,3-1.14,2.64a.82.82,0,0,0-1,.24,3.23,3.23,0,0,0,.12,3c.35.35.28.39-.39.24s-.83,0-.83.63c0,.43.2.83.43.83s.31.16,0,.59-.59,1.5-.87,4.72a6.35,6.35,0,0,0,.2,1.85c.24.87.16,1-.28.87s-.55,0-.35,1.18a2.91,2.91,0,0,1-.2,1.89,5.39,5.39,0,0,0-.39,2.24,9.22,9.22,0,0,1-.63,3c-.67,1.38-.43,3.07.39,2.91.28-.08.51,0,.51.28s-.28.43-.67.43-.83.08-1,.12-.12.31.16.63a1.16,1.16,0,0,0,.87.47.58.58,0,0,1,.59.43c.16.35-.08.43-.83.24-1.34-.31-1.38.51-.08,1a2,2,0,0,1,1.38,2.72c-.28.71-.55.87-1.34.67s-1-.08-1,.31a1.35,1.35,0,0,1-.67,1c-.43.28-.55.55-.31.71.51.39.67,3.27.16,3.27a.4.4,0,0,1-.35-.43.22.22,0,0,0-.35-.2,3.21,3.21,0,0,0-.2,1.81c.08.87,0,1.57-.24,1.57a.37.37,0,0,0-.39.39c0,.2.51.39,1.1.39.91,0,1.18.24,1.61,1.38.28.75.71,1.38.94,1.38s-.24.28-1.1.59a4.22,4.22,0,0,1-1.73.39c-.31-.35.83-1.38,1.26-1.1.24.12.08-.24-.35-.79-.91-1.26-1.69-1.34-1.81-.2-.24,3.39-.16,5.31.24,5.79s.31.59,0,.71-.39.47-.28.83c.24,1-1.46,1.85-2.91,1.46a10.1,10.1,0,0,0-2.6-.51c-.55-.08-.67-.28-.47-.87s.08-.79-.35-.79-.63-.16-.63-.35-.35-.51-.79-.63a1.05,1.05,0,0,1-.79-.83c0-.32-.12-.51-.28-.47-.51.12-2.09-.51-2.09-.87,0-.16-.43-.43-.94-.55a1.73,1.73,0,0,1-1.22-1c-.16-.55-.75-.87-1.85-1a2.92,2.92,0,0,1-1.77-.79c-.31-.79-1.3-.67-1.3.16,0,1.18-.71,1.61-1.81,1.1s-1.18-.83-.35-1.18c.51-.16.59-1.18.2-2.2a.71.71,0,0,1,0-.51c.08-.39-.51-.35-1,.12-.28.28-.83,0-1.69-.83l-1.3-1.22,1.1-.75c.94-.63,1.18-.63,1.26-.16s.24.47.67.08.39-.63.12-.94c-.43-.55,0-1.42.51-1.1s.35-.43-.47-1.34a2.13,2.13,0,0,0-2.28-.71,4.72,4.72,0,0,1-3.07-.79c-1.69-1-2.09-.79-1.3.67.24.47.24.83,0,1-.43.24-1.3-2.48-1-3,.12-.2.47-.16.79.12a1.41,1.41,0,0,0,1.18.2c.51-.2.51-.35-.24-1.3s-.79-1.1-.24-1.22a.79.79,0,0,0,.63-.71c0-.63.63-.75.94-.2.12.2,0,.55-.31.79s-.43.67-.08,1.42.63.94,1.81.75c1.81-.31,2.4-.91,1.26-1.18s-1.14-.94,0-.94c.43,0,.71-.16.59-.35s0-.47.24-.55c.39-.16.35-.31-.08-.67s-.31-.39.71-.2,1.26.16,1.26-.55c0-.47.16-.83.35-.83s.43-.47.51-1.1.31-1,.63-.94c.71.12,1-1,.47-1.69s-.28-.75.79-.2,1.57-.35.63-.87a1.16,1.16,0,0,1-.63-.83c0-.28.16-.24.39.12s.43.51.79,0c.51-.75.51-1.18,0-1.18-.2,0-.39-.35-.39-.79a1.51,1.51,0,0,0-.67-1.14c-.67-.39-.67-.39,0-.43a.69.69,0,0,0,.67-.75,1.1,1.1,0,0,1,.63-1c.47-.16.59-.08.39.35-.31.91.16.71,1.18-.51s1.14-1.5.55-1.85,0-1.38.67-1.38c.39,0,.47-.24.31-.87s-.16-.79.35-.59.63,0,.67-.63c0-.47.08-1.38.12-2a1.18,1.18,0,0,0-.87-1.46c-1.22-.47-1-1.69.31-1.81.55,0,.75,0,.51.12a1,1,0,0,0-.51.83c0,.51.12.51.59.12a1.84,1.84,0,0,0,.59-1.18,1.81,1.81,0,0,0-.59-1.18c-.83-.71-.75-1.14.35-1.61a3.31,3.31,0,0,0,1.42-1.93c.39-1.26.39-1.61-.16-2.44-.71-1.1-.47-3.46.35-3.46s1-3.19.28-4.05-.55-.94.79-1.61a2,2,0,0,0,1-1.42,3.47,3.47,0,0,1,.51-1.42.63.63,0,0,0-.12-.87c-.31-.31-.31-.47,0-.47s.39-.47.35-1.1a12.71,12.71,0,0,1,.59-3.23,16.15,16.15,0,0,0,.55-3.86,3.44,3.44,0,0,1,.28-1.89c.2-.12.16-.47-.08-.75s-.16-.83.71-1.85,1.14-1.61,1.18-3.86c0-1.5.2-2.6.43-2.68a.76.76,0,0,0,.43-.71.5.5,0,0,1,.43-.55.22.22,0,0,0,.2-.35,10.32,10.32,0,0,1,.55-3.23,22.92,22.92,0,0,0,.79-4.17,8.63,8.63,0,0,1,.39-2.28,2,2,0,0,0,.12-1.5,3.08,3.08,0,0,1-.2-1.46,2.9,2.9,0,0,0-.87-2.05,2.13,2.13,0,0,0-2.44-.83c-1.14.2-1.57.08-2-.51s-.59-.71-1.06,0-.55.63-1.1-.2A2.35,2.35,0,0,0,100,21c-1.46-.08-2.32-1-1.3-1.38.51-.16.55-.28.16-.51a.76.76,0,0,0-.94.12c-.59.59-1.06.55-1.06-.12,0-.28-.43-.63-.94-.71-1.1-.24-1.42.43-1.42,3.15,0,1.14-.2,1.77-.59,1.89a.74.74,0,0,0-.39,1c.16.43.08.75-.16.75-.55,0-.55,1.85,0,2.16.24.16.16.59-.24,1.18-.67,1.06-.12,1.77.83,1,.59-.47,1.38-.24,1.38.47,0,.2-.28.28-.63.16-.91-.35-1.46.12-.94.75.31.39.31.59,0,.83s-.67,0-.94-.35c-.59-.83-1-.87-1-.12a1.73,1.73,0,0,1-.59,1c-.51.43-.51.59,0,1.3s.47.94,0,1.89c-.31.63-.47,1.14-.31,1.14s0,.28-.24.59c-.43.51-.39.71.08,1.1.87.67,1.22,3.39.47,3.7s-.71.91.08.91c.39,0,.55.24.39.67a11.87,11.87,0,0,0-.31,2.36c-.12,1.46-.24,1.69-1,1.69-.91,0-1.26.91-.51,1.38a.79.79,0,0,1,.39.63c0,.24-.2.28-.47.12s-.35-.08-.2.31c.31.83-.12,1.18-.75.67-1-.83-1.69-.12-1.61,1.57s.35,2,.87,1.22c.24-.39,1.38-.12,1.38.35,0,.16-.47.31-1,.35a3.26,3.26,0,0,0-1.57.51c-.59.51-.35,1.22.35,1.1a4.23,4.23,0,0,1,1.65.39c.67.28,1.54.67,2,.83.67.31.63.35-.31.35A4.72,4.72,0,0,1,88.62,57c-.87-.47-.91-.39-.28,1.61.43,1.54.91,1.93,1.18,1.06.2-.59,1.1,0,1.1.71,0,.31-.39.55-.94.55a1.29,1.29,0,0,0-1.18.63c-.35.94.08,1.18.94.63,1.42-.87,1.65-.31.39,1-.94,1-1.77,1.14-1.42.28.12-.39,0-.59-.51-.59a1.19,1.19,0,0,1-1-.59c-.24-.63-1.61-.83-2-.28-.12.2.16.63.55,1,.63.51.67.83.35,2.05a3.16,3.16,0,0,0-.2,1.65c.12.12,0,.59-.24,1-.35.67-.24.91.51,1.5.91.71.94.71,1.57-.12.39-.51.91-.75,1.3-.59A1.27,1.27,0,0,1,89,70.61c-.31.2-.24.35.28.55,1.1.39,1.06,1.57,0,2-.59.24-.87.59-.71,1s0,.59-.24.59-.31.16-.2.39,0,.39-.16.39c-.59,0-.55-1.3.08-1.93.39-.39.35-.55-.2-.87a1,1,0,0,1-.43-1.18c.16-.63.08-.79-.31-.67a1,1,0,0,0-.47,1c.12.87-1.26,1.5-1.73.79-.12-.24,0-.31.16-.2s.43-.24.43-1.1c0-1.18-.08-1.3-.71-1-.47.28-.71.79-.67,1.73a3.16,3.16,0,0,1-.71,2.2c-.67.75-.71.87-.08,1.46s.75.55,1.14.2c.79-.79,1.57-.59,1.3.31-.2.59.08,1.18.94,2.05,1.34,1.38,1.54,1.89.63,1.89-.31,0-.59.35-.59.79,0,.87-.59,1.06-1,.35-.16-.28,0-.63.39-.83a1.18,1.18,0,0,0,.63-.79c0-.67-1.93-2.28-2.76-2.28a1.35,1.35,0,0,1-1-.39c-.39-.67-1-.43-1,.39a1.58,1.58,0,0,0,.79,1.18c.55.31.75.67.59,1.18a.9.9,0,0,0,.2,1,1,1,0,0,1,.39.71c0,.28-.2.16-.43-.24-.87-1.46-3.11-.16-2.48,1.46.12.35.08.63-.12.63-.67,0-1.22,1.69-.79,2.4.28.43.2,1-.28,1.93-.83,1.73-.83,1.89.39,2.48l1.06.47-.94.24c-.51.12-.91.43-.83.67s-.08.47-.28.47-.31.47-.28,1.06c.12.94.28,1.1,1.22,1,.71-.12,1,0,.83.28a1.7,1.7,0,0,1-1.26.43c-.87,0-.94.16-.94,1.65a4,4,0,0,0,.63,2.32c.87,1,.43,1.89-1,2.16-.63.16-1.18.47-1.22.71s0,1.42-.08,2.6L77,106.35H74.25l.12-1.77c.08-1.57,0-1.69-.43-1.1a1.81,1.81,0,0,1-1,.71c-.63,0-1.65-1.61-1.65-2.6a2,2,0,0,0-.59-1.34c-.51-.43-.71-.39-1.14.2s-.51.67-.79,0c-.16-.43-.12-.79.16-.87.63-.24-1.22-1.46-2-1.34-.35,0-.91-.59-1.38-1.54a4,4,0,0,0-1.26-1.81.81.81,0,0,1-.51-.59,4.41,4.41,0,0,0-1-1.57,2.76,2.76,0,0,1-.71-2.87c.16-1.14.08-1.77-.2-1.77a.63.63,0,0,0-.55.43c-.08.2-.43.28-.83.12s-.59-.39-.28-.75c.55-.67.12-.91-2-1.18s-2.05-.28-1.73-1.1A2.22,2.22,0,0,1,58,84.66,5.2,5.2,0,0,0,59.81,84c.31-.28.47-.28.47,0s.31.43.71.43.55-.08.12-.35c-.59-.39-.28-1.22.51-1.22.63,0,1.1-2.4.59-2.91s-.87,0-.87,1.34-.2,1.46-.87.51c-.55-.75-1.46-.35-1.1.47.16.43,0,.51-.43.35a1,1,0,0,1-.63-.79c0-.79-1.06-1.14-1.77-.55-.47.39-.59.39-.59-.12,0-.35.39-.75.91-.91A2.6,2.6,0,0,0,58,79.61c.24-.31.31-.28.31,0,0,.75,1.46.63,1.73-.12s.16-1-.91-1.06c-.87,0-1-.51-.47-1.38.24-.43.39-.39.59.16s.31.63,1,0c1.06-1,1-2.09-.2-2.64-1.38-.63-1.22-1.1.31-1.1,1,0,1.3-.16,1.3-.71,0-.35.12-.71.28-.75.63-.08,2.6-2.2,2.4-2.56C64,68.9,63,69.1,63,69.73c0,.79-.87.75-1.57-.12-.67-.71-.59-2.05.08-2.05.2,0,.31.28.16.59s0,.59.35.59c.55,0,.79-1.1.67-2.76-.12-1.26.24-1.54,1.46-1.18,1.46.39,1.69-.24.28-.79-1.26-.47-1.61-1.1-1-1.77a1.37,1.37,0,0,1,1.42-.35c.71.2.94.08.94-.39s.31-.63.83-.63.75-.16.59-.63a5.82,5.82,0,0,1-.24-.79c0-.08-.35-.16-.79-.16s-.79-.28-.79-.59a1.34,1.34,0,0,0-.67-.94c-.63-.35-.63-.47-.12-.83s.51-.51.16-1.1a1,1,0,0,1,0-1.38c.51-.75,1.06-.51.71.35-.12.31,0,.55.43.55s.63.2.63.47.12.35.24.2,0-.51-.16-.91A1,1,0,0,1,68,53.65c.55.2.63.12.43-.47A1.32,1.32,0,0,1,68.58,52c.31-.39.16-.75-.63-1.57-1.18-1.18-1.18-1.3.47-1.42.83,0,1.14-.24,1-.59s0-.43.51-.28.63.16.31-.2c-.51-.55-.28-2.13.28-1.77.2.12.35,0,.35-.2s-.47-.67-1.06-1c-.94-.47-1-.59-.39-.83,1-.39.83-1.1-.43-1.69-.94-.43-1.14-.39-1.73.31-.79,1-1.1,1-.83,0,.16-.63,0-.75-.63-.55-.47.12-.83,0-.83-.24s.47-.43,1-.43c.87,0,.94-.12.59-.55s-.31-.63-.08-.79.63.08.91.51.71.67,1.1.39.47-.43.12-.67A3.1,3.1,0,0,1,67.9,39a4.23,4.23,0,0,0-.83-1.81,1.47,1.47,0,0,1-.28-1.3c.28-.75.35-.75,1.38-.24a.94.94,0,0,0,1.34-.16,4.53,4.53,0,0,1,1.06-.79c.39-.2.39-.28,0-.47s-.39-.35,0-.79.31-.55,0-.55S70.1,32.49,70,32s-.59-1-1.69-1.34c-.87-.24-1.3-.51-1-.55s1.18-.16,1.93-.24A2.79,2.79,0,0,0,71,29.21c.16-.28.28.08.28.91s-.12,1.06-.24.67c-.2-.75-.91-.91-.91-.2,0,1.73,3.15,3.27,3.46,1.73.2-.87-.71-1.89-1-1.1-.12.24-.35.39-.51.28s-.16-.75.08-1.38.55-1.06.75-.94.35,0,.35-.24-.24-.39-.55-.28c-.87.35-1-.12-.39-1.14.35-.51.87-.79,1.18-.67s.55-.08.55-.71a5.33,5.33,0,0,1,.51-1.93c.94-1.81,1.06-2.76.35-2.76-.47,0-.31-.24.43-.71.59-.35,1.06-.79,1.06-1a2,2,0,0,1,.59-.91c.79-.79.75-1.42,0-1.26a.7.7,0,0,1-.83-.39c-.12-.28.16-.47.63-.47s.83-.2.83-.43-.35-.31-.79-.16c-.59.2-.79.08-.79-.51a1.14,1.14,0,0,1,.55-1c.43-.16.51,0,.35.39s-.08.55.31.43c.59-.2,1-2.28.47-2.28-.2,0-.35-.35-.35-.79s.24-.79.47-.79c.63,0,.47-1.93-.2-2.16a.59.59,0,0,1-.31-.75,2,2,0,0,0-.55-1.54A4.46,4.46,0,0,1,76,5.78c0-.2-.39-.51-.87-.63a2.8,2.8,0,0,1-1.5-1.5,2.39,2.39,0,0,0-1.38-1.42,6.82,6.82,0,0,1-1.73-.59c-.75-.35-1-.35-1.42.24s-.55.59-.94.12a2.24,2.24,0,0,0-1.46-.55C65.85,1.61,65.5,2,65.06,2.95Zm6.5,2.13a.39.39,0,0,1-.39.39.42.42,0,0,1-.39-.39.39.39,0,0,1,.39-.39A.36.36,0,0,1,71.56,5.08ZM69.2,6.85c0,.43-1.14.43-1.3,0s0-.47.55-.35A2.29,2.29,0,0,1,69.2,6.85ZM71,8.11c-.39.43-1-.71-.71-1.38.16-.51.31-.43.59.24C71.12,7.44,71.16,7.95,71,8.11Zm4.68.51c.12.2,0,.39-.39.39s-.51-.2-.39-.39.31-.39.39-.39S75.57,8.38,75.69,8.62Zm0,3.15c.12.2,0,.39-.16.39a.43.43,0,0,1-.43-.39c0-.24.08-.39.16-.39S75.57,11.53,75.69,11.77ZM64.31,17.91a4.26,4.26,0,0,0-.24,1,.35.35,0,0,1-.35.35c-.55,0-.79-1.5-.28-1.73C64.27,17.16,64.55,17.28,64.31,17.91Zm36.93,4.72c.31.83-.28.67-.83-.24-.43-.63-.39-.71,0-.55A1.6,1.6,0,0,1,101.24,22.63Zm-6,2.21c-.28.28-.47.31-.47.08,0-.55.47-1,.75-.75C95.61,24.29,95.49,24.6,95.25,24.84Zm4.25.86c0,.31-.43.63-1,.71-1.14.24-1.26-.16-.35-1C98.84,24.72,99.5,24.88,99.5,25.7Zm72.75.2c.51,1.14.31,2.4-.39,2.4-.2,0-.28-.51-.12-1.14s.08-1.26-.16-1.42c-.51-.28-.59-1-.12-1C171.62,24.76,172,25.27,172.25,25.9Zm-110.14,0c0,.2-.28.39-.63.39s-.47-.2-.35-.39a.73.73,0,0,1,.63-.39A.36.36,0,0,1,62.11,25.94Zm8.19.2a5.56,5.56,0,0,1-.55,1.34c-.51,1-.83,1.26-1.5,1.06a6.83,6.83,0,0,0-1.1-.24c-.2,0-.31-.24-.31-.55s.59-.67,1.3-.83,1-.35.79-.47c-.91-.35-.55-1,.39-.67A3.49,3.49,0,0,1,70.3,26.14ZM96.71,27A2.13,2.13,0,0,1,97,28.3c-.12.2,0,.43.28.55s.28.35-.24.79c-1.06.87-1.54.79-1-.2s.2-2.28-.47-1.61-1.1.55-1.1-.43C94.39,25.62,96,25.35,96.71,27Zm78.21.83c-.39.39-.75-.2-.39-.71s.31-.43.47,0A.81.81,0,0,1,174.92,27.79Zm1.62-.83a.79.79,0,0,1-.75,0c-.31-.12-.2-.24.24-.24S176.69,26.84,176.54,27Zm-8.66,1c-.12.31-.24.2-.24-.24s.08-.67.2-.51A.82.82,0,0,1,167.88,28Zm10.23-.24a.79.79,0,0,1-.75,0c-.31-.12-.2-.24.24-.24S178.27,27.63,178.11,27.75Zm-7.2,1.34a2.14,2.14,0,0,1,.87.59c.71.71,1.34.79,1.34.16,0-.31.16-.31.55,0s.43,2-.08,2a5.13,5.13,0,0,1-1.34-1.06c-.87-.83-1.22-.94-1.57-.59-.67.67-2.16.59-2.44-.16-.39-1-.28-1.34.35-1.34a.54.54,0,0,0,.59-.47c0-.24.28-.16.71.2A2.42,2.42,0,0,0,170.91,29.09Zm-70.42,1.18c.12.24,0,.28-.35.16-.71-.28-.83-.55-.28-.55A.75.75,0,0,1,100.49,30.27ZM59.75,31c0,.51-.47.87-.87.63s0-.94.51-.94A.34.34,0,0,1,59.75,31Zm113.36,1.89c1.22.2,1.38.35,1.46,1.57.08.75-.08,1.34-.28,1.34s-.39-.28-.39-.59-.16-.59-.39-.59a.39.39,0,0,0-.39.39c0,.79-.75.35-1.26-.71-.35-.63-.79-1-1.22-.94S170,33.26,170,33C170,32.59,171,32.51,173.11,32.87ZM170.47,34c.91.71.87.91-.2.83a1.1,1.1,0,0,1-1-.71C169.1,33.3,169.53,33.26,170.47,34Zm-32.86.67a.57.57,0,0,1-.51.39.58.58,0,0,1-.51-.39c-.08-.24.16-.43.51-.43S137.69,34.4,137.61,34.64Zm41,1.22c0,.71-.08.79-.35.31a1,1,0,0,1-.2-.87C178.43,34.76,178.62,34.95,178.62,35.86Zm-1.57-.08a.43.43,0,0,1-.43.39c-.2,0-.28-.2-.16-.39s.31-.39.43-.39S177.05,35.54,177.05,35.78Zm-6.85,2.64c-.43.43-.75-.24-.43-.94s.31-.67.47,0A1.18,1.18,0,0,1,170.2,38.42Zm-69.12-.28a.39.39,0,0,1-.39.39.42.42,0,0,1-.39-.39.39.39,0,0,1,.39-.39A.37.37,0,0,1,101.08,38.14Zm-94.16,3c-.35.35-1.18-.55-.91-1s.39-.31.67.16S7,41,6.92,41.09Zm51.8-.67c.31.51-.43,1.38-.91,1.1-.63-.39-.55-1.42.12-1.42A1.18,1.18,0,0,1,58.72,40.42Zm79.75.08c.31.2.43.39.2.39a2.71,2.71,0,0,1-1-.39c-.31-.2-.39-.39-.2-.39A2.47,2.47,0,0,1,138.47,40.5ZM19.8,40.86c.12.24-.16.35-.59.31s-.79-.2-.79-.35C18.42,40.39,19.52,40.42,19.8,40.86Zm80.49,1.81c0,.59-.24,1-.55,1-.87,0-1.14-.71-.55-1.34C99.94,41.45,100.29,41.57,100.29,42.67ZM134,42.55c-.12.31-.24.2-.24-.24s.08-.67.2-.51A.85.85,0,0,1,134,42.55Zm5.39-.28c-.16.31-.39.59-.59.59s-.24-.28-.12-.59.39-.59.59-.59S139.54,42,139.42,42.27Zm32.39.67c-.12.28-.2.08-.2-.47s.08-.75.2-.51A2,2,0,0,1,171.81,42.94Zm-46.72-.7c0,.12-.16.31-.39.43s-.39,0-.39-.16a.43.43,0,0,1,.39-.43C124.93,42.08,125.09,42.16,125.09,42.24Zm8.27.23a.39.39,0,0,1-.39.39c-.2,0-.39.28-.39.63s-.16.47-.39.35-.2-.51.12-1C132.8,42,133.36,41.84,133.36,42.47Zm2.83,1.22a2.89,2.89,0,0,1-.31,2c-.35.28-.51-.08-.63-1.3-.2-1.77-.08-2.28.47-2.28C135.88,42.08,136.11,42.79,136.19,43.69ZM15.62,43.22c.39.24.39.39,0,.63a1,1,0,0,1-1.1-.35c-.55-.51-.55-.63-.08-.63A2.36,2.36,0,0,1,15.62,43.22Zm-3.7.43c.28,0,.59.35.71.79.28,1-.51,1-2.13,0-1.14-.71-.91-1.38.35-1A5.74,5.74,0,0,0,11.92,43.65ZM171.07,44c.24.71-.59.55-.87-.16-.16-.39,0-.55.24-.47A1.25,1.25,0,0,1,171.07,44ZM17.12,45.31c-.12.31-.24.2-.24-.24s.08-.67.2-.51A.79.79,0,0,1,17.12,45.31Zm42-.48c.12.2,0,.39-.35.39s-.63-.2-.63-.39a.36.36,0,0,1,.35-.39A.77.77,0,0,1,59.16,44.83ZM171.38,45.9c-.31.31-1.42-.2-1.42-.67,0-.28.24-.28.83,0C171.22,45.5,171.5,45.78,171.38,45.9ZM61.32,45.38c0,.12-.16.31-.39.43s-.39,0-.39-.16a.43.43,0,0,1,.39-.43C61.17,45.23,61.32,45.31,61.32,45.38Zm103,.87a.79.79,0,0,1-.75,0c-.31-.12-.2-.24.24-.24S164.49,46.13,164.33,46.25Zm9.18,1.81c0,.59-.75.31-1.14-.43-.55-1,0-1.46.63-.59A2.7,2.7,0,0,1,173.51,48.06ZM16.17,49.28c-.12.2-.35.12-.55-.16a1,1,0,0,1-.08-.87c.12-.2.35-.12.55.16A1,1,0,0,1,16.17,49.28Zm46.1-.71c-.16.31-.31.59-.39.59s-.16-.28-.16-.59.16-.59.39-.59S62.39,48.26,62.27,48.57Zm-48.81,1c.12.2-.16.43-.63.55-1,.28-1.3.12-.91-.47A1,1,0,0,1,13.46,49.52Zm48.81,1c-.24.59-.94.91-.94.43,0-.31.94-1.34,1.1-1.18A1.59,1.59,0,0,1,62.27,50.5Zm110.25-.55c.12.2,0,.39-.16.39a.43.43,0,0,1-.43-.39c0-.24.08-.39.16-.39S172.4,49.71,172.52,49.95Zm-6.93,1.73c-.35.31-.39.28-.2-.28a5.92,5.92,0,0,0,.28-1.18c0-.28.12-.16.24.28A1.27,1.27,0,0,1,165.59,51.68Zm10.47-.94c.12.2.08.39-.16.39a.94.94,0,0,1-.63-.39c-.12-.24-.08-.39.16-.39A.75.75,0,0,1,176.06,50.74Zm-85.22.39c0,.2-.08.39-.16.39s-.31-.2-.43-.39,0-.39.16-.39A.39.39,0,0,1,90.84,51.13ZM129.3,52c-.12.31-.24.2-.24-.24s.08-.67.2-.51A.79.79,0,0,1,129.3,52Zm-111.67.12a.61.61,0,0,1-.59.59c-.35,0-.47-.24-.35-.59s.39-.59.59-.59S17.63,51.8,17.63,52.12Zm148,.19c.47.31.43.39-.28.39-.51,0-.91-.2-.91-.39C164.45,51.8,164.89,51.8,165.63,52.31Zm-100.49.87c-.12.31-.24.2-.24-.24s.08-.67.2-.51A.79.79,0,0,1,65.14,53.18Zm111.51-.71c0,.12-.16.31-.39.43s-.39,0-.39-.16a.43.43,0,0,1,.39-.43C176.5,52.31,176.65,52.39,176.65,52.47Zm-2.75.63a.39.39,0,0,1-.39.39c-.2,0-.28.31-.16.67.2.55.16.59-.16.16-.43-.59-.2-1.61.35-1.61A.36.36,0,0,1,173.9,53.1ZM94,53.73c0,.31-.16.47-.39.35a.83.83,0,0,1-.39-.63.38.38,0,0,1,.39-.35C93.84,53.1,94,53.37,94,53.73Zm33.86-.24a.39.39,0,0,1-.39.39.42.42,0,0,1-.39-.39.39.39,0,0,1,.39-.39A.37.37,0,0,1,127.85,53.49ZM14.52,55c-.28.08-.91-.24-1.38-.71l-.83-.87,1.38.71C14.52,54.52,14.87,54.87,14.52,55Zm76.32-1c0,.12-.16.31-.39.43s-.39,0-.39-.16a.43.43,0,0,1,.39-.43C90.69,53.89,90.84,54,90.84,54Zm75.58.63a.39.39,0,0,1-.39.39.42.42,0,0,1-.39-.39.39.39,0,0,1,.39-.39A.37.37,0,0,1,166.42,54.67ZM31.09,57.9c-.59.59-1,.16-.71-.71.2-.51.35-.59.71-.24S31.45,57.55,31.09,57.9Zm4.65.47c0,.08-.28.24-.59.39s-.59,0-.59-.16.28-.39.59-.39S35.74,58.3,35.74,58.37ZM22.35,62.23c0,.2-.28.31-.59.31s-.59-.08-.59-.16a6.19,6.19,0,0,0-.24-.83c-.24-.59-.16-.59.59-.16C22,61.72,22.35,62.07,22.35,62.23Zm-4.48,1c-.16.12-.43,0-.71-.24s-.31-.59.12-1.1.55-.63.67.2A2.06,2.06,0,0,1,17.87,63.25Zm103.68-.66a.36.36,0,0,1-.39.35c-.2,0-.39-.28-.39-.63s.2-.47.39-.35A.74.74,0,0,1,121.55,62.59ZM29.24,63.65c-.31.31-1-.39-1-1s.08-.51.55.16C29.12,63.18,29.32,63.61,29.24,63.65Zm33.07-.32c.12.2,0,.39-.16.39a.43.43,0,0,1-.43-.39c0-.24.08-.39.16-.39S62.19,63.1,62.31,63.33Zm-2.56.83c0,.24-.16.28-.39.16a.9.9,0,0,1-.39-.63c0-.24.2-.28.39-.16A.81.81,0,0,1,59.75,64.16ZM94,64.71c.39.16.75.43.75.63s-.28.24-.75,0-.87-.28-1.06,0-.35.28-.55-.08A1.24,1.24,0,0,1,92.54,64c.39-.59.51-.63.59-.16A1.37,1.37,0,0,0,94,64.71Zm-3.19.55a1,1,0,0,0,.51.94c.31.12.24.39-.31.83-1,.79-1.54.79-1.22,0s-1.14-.83-1.54-.16a.71.71,0,0,1-.83.2c-.31-.12-.43,0-.31.31.24.63-.47,1.22-.79.67a3.31,3.31,0,0,1,0-1.57c.28-1.3,1.3-1.69,1.38-.55,0,.59.08.59.24.08a2.19,2.19,0,0,1,1.22-1C90.73,64.4,90.84,64.44,90.84,65.26Zm70.23.28c.12.31.08.47-.16.35a.73.73,0,0,1-.39-.63C160.52,64.71,160.79,64.83,161.07,65.54ZM121,65.7c.12.2,0,.39-.35.39s-.63-.2-.63-.39a.36.36,0,0,1,.35-.39A.73.73,0,0,1,121,65.7ZM22.51,67.23a1.79,1.79,0,0,1-.16,1.38c-.28.75-.24,1.14.28,1.61.83.87.35,1.22-.87.67-.87-.39-.94-.59-.59-1.3a1.92,1.92,0,0,0,.24-1.42C21,67.19,22,66.36,22.51,67.23ZM59,68.57c0,.2-.16.2-.39.08a1.21,1.21,0,0,1-.39-.91c0-.59.08-.59.39-.08A2.87,2.87,0,0,1,59,68.57Zm-34.83.55c-.28.67-.31.67-.59-.08-.35-.94-.08-1.61.47-1.06A1.18,1.18,0,0,1,24.13,69.12Zm105.13-.2a7.58,7.58,0,0,0-.2,1.18c0,.12-.39.16-.83,0-.79-.2-.79-.24.08-1.1C129.46,67.9,129.46,67.9,129.26,68.92Zm42.79.16c.2.2-1.1,1.73-1.5,1.73-.12,0-.2-.43-.2-1,0-.71.2-1,.71-1A1.9,1.9,0,0,1,172.05,69.08ZM52.66,71.36c0,.35-1.18.55-1.38.24s.12-.39.55-.39S52.66,71.28,52.66,71.36ZM173.11,72a.39.39,0,0,1-.39.39.42.42,0,0,1-.39-.39.39.39,0,0,1,.39-.39A.37.37,0,0,1,173.11,72Zm-139.34.24a2.33,2.33,0,0,1-.51.75c-.43.43-.63.39-1-.24s-.35-.75.51-.75C33.34,72,33.77,72.11,33.77,72.23Zm59,.16a.39.39,0,0,1-.39.39.42.42,0,0,1-.39-.39.39.39,0,0,1,.39-.39A.36.36,0,0,1,92.81,72.39Zm40.86.47c0,2.16-.39,3.94-.79,3.54-.24-.24-.24-.67,0-1.18s.31-.91,0-1.06c-.63-.39-.47-2.16.16-2.16C133.47,72,133.71,72.35,133.67,72.86ZM45,73.65c.47-.12.71,0,.55.12-.43.47-3.46.67-3.46.24s.87-.79,1.54-.43A2.38,2.38,0,0,0,45,73.65Zm7.71-.08a.39.39,0,0,1-.39.39.42.42,0,0,1-.39-.39.39.39,0,0,1,.39-.39A.36.36,0,0,1,52.66,73.57Zm-25.58.59c0,.35-.24.47-.59.35s-.59-.39-.59-.59.28-.35.59-.35A.6.6,0,0,1,27.08,74.16Zm104.07.23a.43.43,0,1,1-.12-.59A.4.4,0,0,1,131.15,74.39Zm-97,.4a.36.36,0,0,1-.39.35c-.2,0-.39-.28-.39-.63s.2-.47.39-.35A.73.73,0,0,1,34.16,74.79Zm13,1c0,.71-1.38.63-2-.08-.39-.47-.31-.63.43-.94C46.6,74.43,47.15,74.83,47.15,75.81Zm5-.47c.35.31.43.59.24.59a1.77,1.77,0,0,1-.87-.59c-.28-.31-.35-.59-.24-.59A2,2,0,0,1,52.11,75.34Zm35.19,1a.39.39,0,0,1-.39.39.42.42,0,0,1-.39-.39.39.39,0,0,1,.39-.39A.37.37,0,0,1,87.3,76.32Zm41.18,1.46c-.43.43-.75-.24-.43-.94s.31-.67.47,0A1.27,1.27,0,0,1,128.48,77.78Zm32.82-1.3c0,.08-.28.28-.63.39s-.47.08-.35-.16S161.3,76.17,161.3,76.48Zm-116.51.59c0,.47-.79,1-1.06.71s.24-1.06.71-1.06A.35.35,0,0,1,44.79,77.07Zm7.48,0a.39.39,0,0,1-.39.39.42.42,0,0,1-.39-.39.39.39,0,0,1,.39-.39A.37.37,0,0,1,52.27,77.11Zm106.67.39c-.55.39-1.06.67-1.14.59-.31-.31.87-1.38,1.5-1.38C159.77,76.72,159.69,76.91,158.94,77.5Zm-30.82,1.85c.12.28-.12.35-.63.24s-.83-.39-.83-.59C126.66,78.49,127.92,78.76,128.12,79.35Zm-43.18.12c0,.2-.08.39-.16.39s-.31-.2-.43-.39,0-.39.16-.39A.41.41,0,0,1,84.94,79.47ZM54.08,82a4.06,4.06,0,0,1,0,1.69c-.16.63-.24.59-.47-.2-.16-.47-.55-.87-.83-.87s-.55-.08-.55-.16a6.29,6.29,0,0,0-.24-.79c-.2-.47,0-.63.79-.63A1.11,1.11,0,0,1,54.08,82Zm35.39-.16A2.93,2.93,0,0,1,89,83.6L88.41,85l-.71-.87c-.55-.67-.59-1-.28-1.57s.51-.55.75-.2.31.28.31-.24C88.48,81.4,89.07,81.2,89.47,81.83ZM57.31,83.72c.08.28-.08.39-.47.24s-.63-.43-.63-.63C56.21,82.82,57.11,83.13,57.31,83.72Zm-17.24.08c-.79.51-1.3.51-1,0a1.09,1.09,0,0,1,.91-.39C40.58,83.41,40.58,83.49,40.07,83.8Zm79.12,0c0,.51-.43.51-1.18,0-.47-.31-.43-.39.31-.39C118.79,83.41,119.19,83.57,119.19,83.8Zm-82.27.63c0,.08-.28.16-.59.16s-.59-.16-.59-.39.28-.28.59-.16S36.92,84.35,36.92,84.43ZM157,85a.36.36,0,0,1-.39.35c-.2,0-.39-.28-.39-.63s.2-.47.39-.35A.75.75,0,0,1,157,85ZM54.43,85c.12.2,0,.39-.35.39s-.63-.2-.63-.39a.36.36,0,0,1,.35-.39A.74.74,0,0,1,54.43,85Zm29.13.28c.71.55.71.59.08.35a5.55,5.55,0,0,0-1.1-.24.39.39,0,0,1-.35-.39C82.18,84.43,82.66,84.51,83.56,85.26Zm75.78.35c0,.67-.87.55-1.1-.16-.08-.28.12-.47.47-.47A.63.63,0,0,1,159.34,85.61ZM37.11,86.95c.16.24,0,.28-.43.12s-.59-.08-.47.31a.61.61,0,0,0,.67.43c.51-.12.59.55.08.91s-1.34-1.26-1-1.77A.64.64,0,0,1,37.11,86.95Zm48,2c-.16.28-.39.31-.55.12a3.42,3.42,0,0,0-1.22-.79c-.71-.35-.79-.47-.28-.47.35,0,.67-.24.67-.43s.35-.08.83.35S85.29,88.68,85.14,88.92Zm-46.65,0a.76.76,0,0,1-.39.63c-.2.12-.39,0-.39-.35s.2-.63.39-.63A.36.36,0,0,1,38.49,88.88Zm45.07,1.61c.12.2,0,.39-.39.39s-.51-.2-.39-.39.31-.39.39-.39S83.44,90.26,83.56,90.49Zm2.44.87c-.12.31-.24.2-.24-.24s.08-.67.2-.51A.79.79,0,0,1,86,91.36Zm74.52.28c0,.47-1.14.91-1.65.59-.24-.16-.2-.39.12-.59C159.69,91.2,160.52,91.2,160.52,91.64Zm1.57.27c0,.31-.16.47-.39.35a.83.83,0,0,1-.39-.63.38.38,0,0,1,.39-.35C161.93,91.28,162.09,91.56,162.09,91.91Zm-79,1c-.28.28-.47.31-.47.08a.94.94,0,0,1,.28-.67.33.33,0,0,1,.47-.08C83.4,92.38,83.29,92.7,83.05,92.93Zm-40.23.32c0,.2-.08.39-.16.39s-.31-.2-.43-.39,0-.39.16-.39A.39.39,0,0,1,42.82,93.25Zm116.52.12c0,.83-.47,1.1-1.06.59-.28-.24-.67-.31-.79-.16s0,.47.28.67c.51.35.51.39,0,.28-1-.28-.94-1.06,0-1.46C159.1,92.78,159.34,92.78,159.34,93.37Zm8.26,1.06a.39.39,0,0,1-.39.39.42.42,0,0,1-.39-.39.39.39,0,0,1,.39-.39A.37.37,0,0,1,167.6,94.43Zm-48.41.79c0,.2-.08.39-.16.39s-.31-.2-.43-.39,0-.39.16-.39A.39.39,0,0,1,119.19,95.22Zm8.46,0c.12.2,0,.39-.35.39s-.63-.2-.63-.39a.36.36,0,0,1,.35-.39A.73.73,0,0,1,127.65,95.22Zm-62.59,2.4a1.28,1.28,0,0,1,0,1c-.12.16-.24,0-.24-.39a1.35,1.35,0,0,0-.67-1c-.63-.35-.67-.39,0-.43A1.06,1.06,0,0,1,65.06,97.62ZM48.33,98c0,.24-.16.28-.39.16a.9.9,0,0,1-.39-.63c0-.24.2-.28.39-.16A.8.8,0,0,1,48.33,98Zm73.61,1.14a.39.39,0,0,1-.39.39.42.42,0,0,1-.39-.39.39.39,0,0,1,.39-.39A.37.37,0,0,1,121.94,99.15Zm-71.25,1a.71.71,0,0,1-1.34.35c-.39-1-.28-1.26.55-1.06C50.34,99.55,50.69,99.86,50.69,100.14Zm16.54-.59a.38.38,0,0,1-.35.39.86.86,0,0,1-.63-.39c-.12-.24,0-.39.35-.39S67.23,99.31,67.23,99.55Zm86.59,0c0,.2-.08.39-.16.39s-.31-.2-.43-.39,0-.39.16-.39A.39.39,0,0,1,153.82,99.55Zm-1.45.82c.24.87-.51,1.38-1.5,1-.51-.2-.51-.31.08-1C151.86,99.39,152.13,99.39,152.37,100.37Zm-64,.36c.24,0,.47.16.47.35s-.55.28-1.22.16-1.14,0-1,.24a.42.42,0,0,1-.16.63c-.31.2-.31.43,0,.75.47.55.2,1-.63,1-.63,0-.67-1.1,0-2.48.35-.83.67-1,1.26-.87A10.73,10.73,0,0,0,88.4,100.73Zm-5.43.82c0,.2-.28.35-.59.35a.61.61,0,0,1-.59-.59c0-.35.24-.47.59-.35S83,101.36,83,101.55Zm73.61.12c0,.12-.16.31-.39.43s-.39,0-.39-.16a.43.43,0,0,1,.39-.43C156.42,101.52,156.58,101.59,156.58,101.67Zm7,1c0,1-.16,1.1-.75.79a1,1,0,0,1-.47-1.18C162.68,101,163.63,101.36,163.59,102.7Zm-104.31-.36a.53.53,0,0,1-.43.39,5.53,5.53,0,0,0-.91,0c-.31,0-.47-.2-.35-.39C57.9,101.79,59.47,101.79,59.28,102.34Zm62.46,1c-1.06.75-1.46.63-.71-.24.35-.43.83-.67,1-.55S122.14,103,121.74,103.37Zm-3,1.49a.58.58,0,0,1-.55.59c-.67,0-1.1-.55-.75-.94S118.79,104.27,118.79,104.86Zm-71.24,1.42a.36.36,0,0,1-.39.35c-.2,0-.39-.28-.39-.63s.2-.47.39-.35A.76.76,0,0,1,47.55,106.28Zm23.22-.43a.43.43,0,0,1-.43.39c-.2,0-.28-.2-.16-.39s.31-.39.43-.39S70.77,105.61,70.77,105.85Zm-13.07.7c.24.71-.59.55-.87-.16-.16-.39,0-.55.24-.47A1.25,1.25,0,0,1,57.7,106.55Zm-10.55.87a.39.39,0,0,1-.39.39.42.42,0,0,1-.39-.39.39.39,0,0,1,.39-.39A.37.37,0,0,1,47.15,107.42Zm73.22.79c0,.16-.43.2-1,.08-.79-.12-.91-.28-.55-.71s.59-.43,1-.12A1.41,1.41,0,0,1,120.37,108.21Zm35.23-.08c.51.31.51.87,0,1.57-.24.43-.43.31-.83-.39C154.18,108,154.57,107.38,155.6,108.13Zm-75.38.82c0,.47-.79,1-1.06.71s.24-1.06.71-1.06A.35.35,0,0,1,80.22,108.95Zm34.32,1.5c-.94.79-1.46.59-.75-.2a2.69,2.69,0,0,0,.71-1.3c0-.31.16-.24.35.24A1,1,0,0,1,114.54,110.45Zm39.21-.87c-.12.12-.35-.08-.47-.47-.24-.55-.2-.59.2-.24S153.86,109.47,153.75,109.58Zm-106.2.2a.39.39,0,0,1-.39.39.42.42,0,0,1-.39-.39.39.39,0,0,1,.39-.39A.37.37,0,0,1,47.55,109.78Zm6.29,0a.39.39,0,0,1-.39.39.42.42,0,0,1-.39-.39.39.39,0,0,1,.39-.39A.37.37,0,0,1,53.84,109.78Zm34.64.2c0,.35-.24.47-.59.35s-.59-.39-.59-.59.28-.35.59-.35A.6.6,0,0,1,88.48,110Zm-4.13.19c-1.06.47-1.38.47-1.38,0,0-.24.47-.39,1.1-.35C85,109.82,85.06,109.86,84.35,110.17Zm-32.87.36c0,.47-.79,1-1.06.71s.24-1.06.71-1.06A.34.34,0,0,1,51.48,110.53Zm101.56,0c0,.2-.35.55-.83.79a1,1,0,0,1-1.42-.08c-.55-.43-.51-.51.31-.75C152.53,110.14,153,110.14,153,110.57ZM120,111a.38.38,0,0,1-.35.39A.86.86,0,0,1,119,111c-.12-.24,0-.39.35-.39S120,110.73,120,111Zm6.69.59c-.63.75-1.18.75-1.18,0a.83.83,0,0,1,.71-.71C127.14,110.65,127.25,110.84,126.66,111.55Zm-80.53,0c-.16.31-.39.59-.59.59s-.35-.28-.35-.59a.61.61,0,0,1,.59-.59C46.13,111,46.25,111.2,46.13,111.55Zm39.2.36c0,.12-.16.31-.39.43s-.39,0-.39-.16a.43.43,0,0,1,.39-.43C85.18,111.75,85.33,111.83,85.33,111.91Zm27.56.23c0,.2-.08.39-.16.39s-.31-.2-.43-.39,0-.39.16-.39A.41.41,0,0,1,112.89,112.14Zm1.69.12a2.23,2.23,0,0,1-.35,1.5c-.31.59-.55.75-.55.35s-.12-1-.24-1.5C113.28,111.67,114.23,111.36,114.58,112.26Zm2.24.32c0,.43-.16.71-.39.55a.62.62,0,0,1-.12-.79C116.59,111.51,116.82,111.59,116.82,112.58Zm-71.32,0c.83.83.51,1.1-1.3,1.1-1,0-1.77-.2-1.77-.39s.35-.39.75-.39a1.39,1.39,0,0,0,1-.39C44.51,112,44.91,112,45.5,112.62Zm27.91.78c-.12.31-.24.2-.24-.24s.08-.67.2-.51A.82.82,0,0,1,73.41,113.4Zm-24.09.75c-.16.2,0,.47.35.59.94.35.75,1.18-.28,1.14-1.57-.08-1.93-.55-1.18-1.57C48.88,113.48,49.83,113.32,49.32,114.15Zm2-.2a.79.79,0,0,1-.75,0c-.31-.12-.2-.24.24-.24S51.52,113.84,51.36,113.95Zm61.33.59c.16.43.16.91,0,1.06s-1-.67-1-1.42S112.42,113.64,112.69,114.54Zm-60,1c0,.31-.16.47-.39.35a.83.83,0,0,1-.39-.63.38.38,0,0,1,.39-.35C52.51,114.9,52.66,115.17,52.66,115.53Zm68.1.75c0,.39-.35.55-1,.51s-.83-.24-.63-.43a1,1,0,0,0,.16-.94c-.2-.51-.08-.51.59-.16C120.37,115.53,120.76,116,120.76,116.28Zm-4.41.67c.28,0,.47.08.47.31a.39.39,0,0,1-.31.39c-.59,0-1.26-.94-1.22-1.77,0-.67.08-.63.31.2C115.76,116.63,116.12,117,116.35,116.95Zm-73.65.55a1.73,1.73,0,0,0,.35,1.38c.39.31.55.31.55,0s.16-.43.31-.43.24.67.16,1.46c-.12,1.34-.08,1.42.43.79.83-1,1.06-.83,1.06.71,0,.75-.2,1.38-.43,1.38s-.35.39-.2,1c.24.87.16,1-.55.75s-.79-.08-.79.55c0,.94-.63,1.38-2,1.46-1.06.08-1.06,0-.83-2.64.12-1.14,1.14-.67,1.06.51,0,.67.12,1.06.35,1s.43-.67.47-1.3a14.56,14.56,0,0,1,.35-2.64c.2-1,.16-1.46-.16-1.46a.51.51,0,0,0-.47.47c0,.28-.2-.47-.35-1.65a6.7,6.7,0,0,1-.12-2.44C42.27,115.76,42.9,116.59,42.7,117.5Zm2.88-.63a.39.39,0,0,1-.39.39.42.42,0,0,1-.39-.39.39.39,0,0,1,.39-.39A.36.36,0,0,1,45.58,116.87Zm42.31.35a.84.84,0,0,1-.67.43c-.24,0-.24-.24.08-.59C87.85,116.39,88.33,116.55,87.89,117.22Zm-15.15,0a.38.38,0,0,1-.35.39.86.86,0,0,1-.63-.39c-.12-.24,0-.39.35-.39S72.74,117,72.74,117.26Zm2.16,1.57c.12.2,0,.39-.35.39s-.63-.2-.63-.39a.36.36,0,0,1,.35-.39A.76.76,0,0,1,74.9,118.83Zm45.86,0a.38.38,0,0,1-.35.39.86.86,0,0,1-.63-.39c-.12-.24,0-.39.35-.39S120.76,118.6,120.76,118.83Zm36.1,1.89c-.79.87-.87,1.3-.16,1.22,1-.12,1.5,0,1.26.43-.12.2,0,.39.35.39s.63.16.63.39-.35.39-.79.39-.79-.2-.79-.43-.35-.35-.83-.28-.94-.2-1.38-1.18c-.51-1.22-.47-1.3.2-1.06a.94.94,0,0,0,1-.2A.9.9,0,0,1,157,120C157.28,120,157.21,120.33,156.86,120.72Zm-108.57.44c.31.55.28.79-.16,1A3.34,3.34,0,0,0,47,123.75a3.61,3.61,0,0,1-.79,1.38c-.51,0-.2-2.76.35-3.31a1.94,1.94,0,0,0,.59-1C47.15,120.13,47.86,120.33,48.29,121.16ZM93,120.88c-.16.24,0,.63.31.87a3,3,0,0,1,.83,1.18c.24.63.16.67-.79.43A4.69,4.69,0,0,1,92.1,123c-.31-.28.39-2.56.75-2.56S93.13,120.61,93,120.88Zm57.31,1.89c0,.2-.47.39-1,.39s-.91-.16-.75-.39.59-.39,1-.39S150.28,122.53,150.28,122.77Zm-63.37.79a.38.38,0,0,1-.35.39.86.86,0,0,1-.63-.39c-.12-.24,0-.39.35-.39S86.91,123.32,86.91,123.56Zm4.88.67c.24.63-.51,1.5-.91,1.06-.12-.12,0-.35.35-.55s.43-.39.12-.39a.48.48,0,0,1-.51-.39C90.84,123.32,91.51,123.52,91.79,124.23Zm-5.63,1.14c.39,1.14.12,1.85-.39,1a.63.63,0,0,0-.79-.28c-.28.2-.35,0-.2-.31s0-.63-.2-.63a.43.43,0,0,1-.43-.39C84.15,123.87,85.77,124.38,86.16,125.37Zm33.46-.24c.79.63.83.75.28.79a2.66,2.66,0,0,1-1.5-.79C117.34,124.07,118.36,124.07,119.62,125.13Zm35.19.4c.12.2,0,.39-.16.39a.43.43,0,0,1-.43-.39c0-.24.08-.39.16-.39S154.69,125.29,154.81,125.53Zm-38.5.23a.79.79,0,0,1-.75,0c-.31-.12-.2-.24.24-.24S116.47,125.64,116.31,125.76Zm1.69-.08c0,.12-.16.31-.39.43s-.39,0-.39-.16a.43.43,0,0,1,.39-.43C117.85,125.53,118,125.6,118,125.68Zm27.76,2.21c.12.2,0,.39-.16.39a.43.43,0,0,1-.43-.39c0-.24.08-.39.16-.39S145.64,127.65,145.76,127.89Zm-55.31.39a.43.43,0,0,1-.43.39c-.2,0-.28-.2-.16-.39s.31-.39.43-.39S90.45,128,90.45,128.28Zm-47.63.4a.43.43,0,0,1-.43.39c-.2,0-.28-.2-.16-.39s.31-.39.43-.39S42.82,128.44,42.82,128.68Zm111.4-.12c0,.71-.71,1.38-.94.94a.88.88,0,0,1,0-.83C153.51,128.2,154.22,128.16,154.22,128.56ZM76.67,129a.76.76,0,0,1-.39.63c-.2.12-.39,0-.39-.35s.2-.63.39-.63A.35.35,0,0,1,76.67,129Zm2.56,0a.9.9,0,0,1-.63.39c-.24,0-.28-.2-.16-.39a.79.79,0,0,1,.63-.39C79.31,128.68,79.35,128.83,79.23,129.07Zm2.17,0c0,.2-.08.39-.16.39s-.31-.2-.43-.39,0-.39.16-.39A.4.4,0,0,1,81.4,129.07Zm64.16.39a.43.43,0,0,1-.43.39c-.2,0-.28-.2-.16-.39s.31-.39.43-.39S145.56,129.23,145.56,129.46Zm6.06,1.85c.51-.16,2,2.05,1.61,2.44-.16.12-.51-.08-.79-.51a1.22,1.22,0,0,0-1.38-.51c-.43.12-.79,0-.79-.16s-.31-.39-.67-.39c-.67,0-.67-.08,0-.24.51-.12.63-.39.43-1-.24-.79-.24-.79.43-.16A1.43,1.43,0,0,0,151.62,131.31Zm-73-.27c.51.35.51.39,0,.39a2.88,2.88,0,0,1-1.18-.39c-.51-.35-.51-.39,0-.39A2.58,2.58,0,0,1,78.64,131Zm28.74.39c0,.43-.16.79-.35.79s-.28-.35-.16-.79.28-.79.35-.79S107.38,131,107.38,131.43Zm-65,.79c0,.47.2.67.55.55.71-.28,1.14,1,.59,1.65s-1.22.67-.94-.2c.16-.55,0-1-.79-1.46s-.91-.75-.51-1C42.15,131.27,42.43,131.35,42.43,132.22Zm63-.4a.43.43,0,0,1-.43.39c-.2,0-.28-.2-.16-.39s.31-.39.43-.39S105.41,131.59,105.41,131.82Zm9.05.56c0,.71-1.1,1.61-1.5,1.22-.16-.16,0-.39.24-.47a.9.9,0,0,0,.47-.75c0-.31.2-.55.39-.55S114.46,132.06,114.46,132.38ZM146,133.6c0,.31-.16.59-.39.59s-.39-.28-.39-.59.2-.59.39-.59S146,133.28,146,133.6ZM75.22,135c-.39.47-.75.59-.83.31-.28-.79.28-1.57.91-1.34S75.85,134.38,75.22,135Zm-34.76,0c.71.59.79.75.28.59a5.29,5.29,0,0,0-1.06-.24c-.16,0-.39-.28-.55-.59C38.81,133.95,39.28,134.07,40.46,135Zm109,.12a1.17,1.17,0,0,1-1,.35.34.34,0,0,0-.51.31c0,.43-.08.43-.39,0-.39-.63.31-1.1,1.69-1.14C149.81,134.58,149.85,134.66,149.42,135.13Zm2.91.32a1.13,1.13,0,0,1-1.14.12c-.67-.28-.67-.31.08-.59C152.21,134.62,152.88,134.89,152.33,135.45Zm-35.86,0a3.55,3.55,0,0,0-1.5,1.18c-.31.39-.75.67-.94.55-.55-.35,1.61-2.16,2.56-2.13C117.34,135,117.34,135,116.47,135.41Zm34.21,1.14c.2,0,0,.71-.47,1.57-.94,1.77-1.18,1.85-2.09.94a1.59,1.59,0,0,0-1.38-.43c-.43.12-.83,0-.83-.16-.2-1.06,0-1.26,1.14-1.34a3.67,3.67,0,0,0,1.77-.55,1,1,0,0,1,1-.24A3,3,0,0,0,150.68,136.55Zm-74,.67c.28.28.12.35-.59.24-.55-.12-1-.35-1-.51C75.1,136.51,76.2,136.71,76.71,137.22Zm33.82.15a.36.36,0,0,1-.39.35c-.2,0-.39-.28-.39-.63s.2-.47.39-.35A.77.77,0,0,1,110.53,137.37Zm-35.82.36c0,.2-.28.39-.63.39s-.47-.2-.35-.39a.73.73,0,0,1,.63-.39A.36.36,0,0,1,74.71,137.73Zm79,2.44c-.12.31-.24.2-.24-.24s.08-.67.2-.51A.82.82,0,0,1,153.71,140.17Zm-108.92-.08c0,.2-.08.39-.16.39s-.31-.2-.43-.39,0-.39.16-.39A.4.4,0,0,1,44.79,140.09Zm101.44,2c.35.35.75.35,1.57,0,1.26-.47,6-.51,6,0a.34.34,0,0,1-.35.31c-.2,0-.43.39-.55.87-.2.71-.31.75-.83.35-.67-.55-2.6-.28-2.6.35a.37.37,0,0,1-.39.39c-.2,0-.39-.28-.39-.59s-.43-.59-1.38-.59-1.46-.24-1.77-.79C145.09,141.59,145.52,141.39,146.23,142.1Zm-33.58.55c.12.31,0,.59-.16.59s-.39-.28-.39-.59.08-.59.16-.59S112.49,142.33,112.65,142.65Zm-29.48.2c.12.2,0,.39-.16.39a.43.43,0,0,1-.43-.39c0-.24.08-.39.16-.39S83.05,142.61,83.17,142.85Zm28.14.43a.36.36,0,0,1-.39.35c-.2,0-.39-.28-.39-.63s.2-.47.39-.35A.73.73,0,0,1,111.31,143.28Zm6.18,2.4c-.55.87-1.1.94-.87.12.63-2,.63-2,1-1.42A1.36,1.36,0,0,1,117.49,145.68Zm3.35,0c-1.61.63-2.32-.12-1-1.06.55-.43.75-.39,1.14.16S121.35,145.44,120.84,145.68Zm30.62-.87c0,.43-.16.79-.35.79s-.43-.35-.55-.79,0-.79.35-.79S151.46,144.38,151.46,144.81ZM131,144.58c0,.08-.28.24-.59.39s-.59,0-.59-.16.28-.39.59-.39S131,144.5,131,144.58ZM153,146.35c0,.47-.79,1-1.06.71s.24-1.06.71-1.06A.34.34,0,0,1,153,146.35Zm-19.49,2c.12.2,0,.39-.35.39s-.63-.2-.63-.39a.36.36,0,0,1,.35-.39A.71.71,0,0,1,133.55,148.36Zm11.61,1.06c0,.55-1,.71-1.34.16s0-.71.75-.71A.56.56,0,0,1,145.16,149.42Zm3.55,1.3a.43.43,0,0,1-.43.39c-.2,0-.28-.2-.16-.39s.31-.39.43-.39S148.71,150.48,148.71,150.72ZM116,152.29a.39.39,0,0,1-.39.39.42.42,0,0,1-.39-.39.39.39,0,0,1,.39-.39A.37.37,0,0,1,116,152.29Zm17.71.2c.39.47.39.59-.12.59-1,0-1.85-.43-1.61-.83C132.33,151.7,133.2,151.82,133.75,152.49Zm-24.21,1.18c0,.55-.16.94-.39.87-.55-.2-.59-1.85,0-1.85C109.34,152.69,109.54,153.12,109.54,153.67Zm36.22-.2c.12.2,0,.39-.16.39a.43.43,0,0,1-.43-.39c0-.24.08-.39.16-.39S145.64,153.24,145.76,153.47Zm.19,2a.39.39,0,0,1-.39.39.42.42,0,0,1-.39-.39.39.39,0,0,1,.39-.39A.37.37,0,0,1,146,155.44Zm-32.28,4c0,.2-.28.35-.59.35s-.59-.35-.59-.83c0-.71.08-.75.59-.35A1.6,1.6,0,0,1,113.67,159.42Zm26.22,0a8.26,8.26,0,0,0-.24,1.46c0,.43-.16.35-.55-.16a1.3,1.3,0,0,1-.2-1.46C139.46,158.28,140.21,158.43,139.89,159.46Zm6.3.51c.71.55.67.55-.51.59s-1.61-.35-1-.91C145.05,159.26,145.32,159.3,146.19,160Zm-35.82.35c.71.55.71.59,0,.87a.83.83,0,0,1-1.06-.28C108.56,159.69,109.11,159.42,110.37,160.32Zm-73.06.48a1,1,0,0,1-.79.83c-.43.12-.79.35-.79.55a.36.36,0,0,1-.39.35c-.75,0-.39-1.46.51-1.89C37.08,160,37.31,160.09,37.31,160.8Zm2.44.82a2.16,2.16,0,0,1,.71,1.1,1.65,1.65,0,0,0,.59,1c.31.28.51.63.39.79s.08.59.39.91a2.2,2.2,0,0,1,.59,1c0,.75-.63.47-1.18-.55-.63-1.18-2-1.34-2-.24,0,.55-.2.71-.79.55-1.22-.31-.59.83.71,1.34,1.14.43.91.59-1.26,1.1-.83.16-1.06.43-.91.94a2.17,2.17,0,0,1-.35,1.42c-.31.39-.55.51-.55.28a.5.5,0,0,0-.55-.47c-.63,0-1.26-1.3-.71-1.5.2,0,.28-.59.16-1.22-.12-.87-.31-1.1-.91-.94-.87.24-1-.59-.16-.91a1,1,0,0,0,.59-.79c0-.63.63-.75,1-.16s1.1,0,.87-.55c-.12-.28.16-.71.55-.94a2,2,0,0,0,.75-1.42A1.23,1.23,0,0,1,38.83,161C39,160.95,39.36,161.23,39.75,161.62Zm103.17,0c-.2.51-.08.59.55.43.91-.24,2.09.28,2.09.94,0,.2-.24.31-.55.2a.69.69,0,0,0-.83.43c-.24.63-.28.63-.67,0s-.39-.71-1.18,0-.83.71-.55-.28c.16-.55.39-1.3.47-1.69s.35-.67.55-.67S143.08,161.23,142.92,161.62Zm18.78,0c0,.08-.28.16-.59.16s-.59-.16-.59-.39.28-.28.59-.16S161.7,161.5,161.7,161.58ZM113,164.1c-.28,1-.75,1.34-1.5,1a.57.57,0,0,1-.31-.83c.2-.55.31-.55.59-.12s.39.39.75-.2C113,163.08,113.24,163.12,113,164.1Zm30.38,1.18a.5.5,0,0,0,.71.12c.28-.12.16.12-.2.55-.87,1-.91,1.34-.08,1,.43-.16.59-.08.47.28a1,1,0,0,1-.59.67c-.55.2-1.81-1.77-1.54-2.48A.66.66,0,0,1,143.39,165.28Zm2.48-.12a4.16,4.16,0,0,0,.43,1.46c.51,1.3.31,1.73-.51,1.06-.59-.47-1.06-2.24-.71-2.6S146,164.85,145.87,165.16Zm20.43,1.54c-.35.35-1.1-.24-.83-.71.16-.24.39-.24.67,0S166.46,166.54,166.3,166.7Zm3.27-.24a.43.43,0,0,1-.43.39c-.2,0-.28-.2-.16-.39s.31-.39.43-.39S169.57,166.23,169.57,166.46Zm-.39,1.7c0,.28.35.71.79,1s.71.67.59.87c-.43.67-2,.43-2.68-.43-.59-.67-.83-.71-1.3-.31-.31.24-.67.35-.83.2-.39-.39.16-.75,1.22-.75a1.36,1.36,0,0,0,1.18-.51C168.43,167.53,169.18,167.49,169.18,168.16Zm-127.93.27c0,.2-.08.39-.16.39s-.31-.2-.43-.39,0-.39.16-.39A.41.41,0,0,1,41.25,168.43Zm.78,1.18a.39.39,0,0,1-.39.39.42.42,0,0,1-.39-.39.39.39,0,0,1,.39-.39A.37.37,0,0,1,42,169.61Zm103.73.4c.12.2,0,.39-.39.39s-.51-.2-.39-.39.31-.39.39-.39S145.64,169.77,145.76,170Zm-106.87.35a.76.76,0,0,1-.39.63c-.2.12-.39,0-.39-.35s.2-.63.39-.63A.36.36,0,0,1,38.89,170.36Zm102.73,1.06c0,.55-.16.91-.35.79s-.31-.91-.08-1.73C141.35,170,141.62,170.6,141.62,171.42Zm-100.37,0c.28.35.31.59.08.59s-.47-.28-.63-.59-.16-.59-.08-.59S41,171.07,41.25,171.38ZM36,171.9c.31.2.08.47-.67.79-1.3.59-1.22,1.65.16,1.65,1.22,0,2.56-1.1,1.89-1.54-.43-.24-.39-.39.16-.59,1-.39,1.89,1.34.94,1.93a.48.48,0,0,0-.2.63c.16.2-.12.35-.55.35a1.17,1.17,0,0,0-1,.79c-.12.43-.47.79-.71.79-.55,0-1.65,1.14-1.93,2a1.06,1.06,0,0,0,.35,1.06,1.77,1.77,0,0,1,.51.91c0,.24-.28.12-.63-.2a1.88,1.88,0,0,0-.94-.63c-.63,0-1.61-1.26-1.42-1.81a.63.63,0,0,0-.16-.75c-.63-.39-.43-1,.2-.75s.63-1-.2-2c-.43-.51-.43-.71-.08-.94a.81.81,0,0,0,.24-1c-.24-.55-.16-.67.35-.47.35.12.67.08.67-.12C33,171.5,35.34,171.46,36,171.9Zm3.66.47a.39.39,0,0,1-.39.39.42.42,0,0,1-.39-.39.39.39,0,0,1,.39-.39A.36.36,0,0,1,39.67,172.37Zm1.58,1.1c0,.55-.43.83-1,.59-.83-.31-.67-.91.24-.91C40.89,173.15,41.25,173.31,41.25,173.47Zm139.73.91a.36.36,0,0,1-.39.35c-.2,0-.39-.28-.39-.63s.2-.47.39-.35A.72.72,0,0,1,181,174.38Zm-41.13.35c.12.2,0,.39-.16.39a.43.43,0,0,1-.43-.39c0-.24.08-.39.16-.39S139.73,174.49,139.85,174.73Zm3.35.75a.76.76,0,0,1-.39.63c-.2.12-.39,0-.39-.35s.2-.63.39-.63A.35.35,0,0,1,143.2,175.48Zm-5.12.82c0,.2-.28.39-.63.39s-.47-.2-.35-.39a.73.73,0,0,1,.63-.39A.36.36,0,0,1,138.08,176.3Zm-1.58.4c0,.2-.28.39-.63.39s-.47-.2-.35-.39a.73.73,0,0,1,.63-.39A.35.35,0,0,1,136.5,176.7Zm5.52-.24c0,.12-.16.31-.39.43s-.39,0-.39-.16a.43.43,0,0,1,.39-.43C141.86,176.3,142,176.38,142,176.46Zm-4.33,1.85c0,.24-.16.28-.39.16a.9.9,0,0,1-.39-.63c0-.24.2-.28.39-.16A.81.81,0,0,1,137.69,178.31Zm2.36.16a.61.61,0,0,1-.59.59c-.63,0-.79-.47-.31-.91S140.05,177.84,140.05,178.47Zm-3.15,1.18c0,.31-.16.59-.35.59s-.43-.28-.59-.59,0-.59.35-.59A.6.6,0,0,1,136.9,179.65ZM31.6,181.81a.9.9,0,0,1-.63.39c-.24,0-.28-.2-.16-.39a.79.79,0,0,1,.63-.39C31.68,181.42,31.72,181.58,31.6,181.81Zm-1.37,3.55c0,.2-.28.39-.59.39s-.59-.2-.59-.39.28-.39.59-.39S30.23,185.12,30.23,185.36Zm-1.58,4.33a.43.43,0,0,1-.43.39c-.2,0-.28-.2-.16-.39s.31-.39.43-.39S28.65,189.45,28.65,189.69Zm2.17,3.15a.83.83,0,0,1-.63.39.38.38,0,0,1-.35-.39c0-.24.28-.39.63-.39S30.93,192.6,30.82,192.84Z"/><path class="cls-1" d="M81,26c0,.2.2.28.39.16s.39-.31.39-.43-.16-.16-.39-.16A.43.43,0,0,0,81,26Z"/><path class="cls-1" d="M68.09,37.91c.08.59.31,1,.51,1,.59,0,.47-1.69-.12-1.89C68.09,36.92,68,37.2,68.09,37.91Z"/><path class="cls-1" d="M53.84,41.68c0,.2.28.39.59.39s.59-.2.59-.39-.28-.39-.59-.39S53.84,41.45,53.84,41.68Z"/><path class="cls-1" d="M69.59,42.08c0,.2.28.39.63.39s.47-.2.35-.39a.73.73,0,0,0-.63-.39A.35.35,0,0,0,69.59,42.08Z"/><path class="cls-1" d="M51.09,54.2a.44.44,0,0,0,.43.47c.24,0,0,.35-.47.79-.94.75-.94.75-.12.79a1.08,1.08,0,0,0,.75-1.93C51.29,53.93,51.09,53.89,51.09,54.2Z"/><path class="cls-1" d="M139.65,55.89c0,.2.2.28.39.16s.39-.31.39-.43-.16-.16-.39-.16A.43.43,0,0,0,139.65,55.89Z"/><path class="cls-1" d="M86.59,57.11c-.55.55-.63,1.5-.12,1.5s1-1.54.75-1.81C87.14,56.72,86.83,56.88,86.59,57.11Z"/><path class="cls-1" d="M39.08,59a.48.48,0,0,0,.63.2c.55-.35.43-.59-.28-.59C39.12,58.61,39,58.81,39.08,59Z"/><path class="cls-1" d="M85.81,60.26c.08.59.43.91,1.22,1,1.38.2,1.46-.75.08-1.38S85.65,59.28,85.81,60.26Z"/><path class="cls-1" d="M115.25,62.15c0,.2.28.39.59.39s.59-.2.59-.39-.28-.39-.59-.39S115.25,61.92,115.25,62.15Z"/><path class="cls-1" d="M63.88,63.33a1.21,1.21,0,0,0,.91.39c.59,0,.59-.08.08-.39C64.08,62.82,63.57,62.82,63.88,63.33Z"/><path class="cls-1" d="M84.35,64.51a.48.48,0,0,0,.63.2c.55-.35.43-.59-.28-.59C84.39,64.12,84.23,64.32,84.35,64.51Z"/><path class="cls-1" d="M102.65,66.88a.43.43,0,0,0,.43.39c.2,0,.28-.2.16-.39s-.31-.39-.43-.39S102.65,66.64,102.65,66.88Z"/><path class="cls-1" d="M64.08,68.45a.43.43,0,0,0,.43.39c.2,0,.28-.2.16-.39s-.31-.39-.43-.39S64.08,68.21,64.08,68.45Z"/><path class="cls-1" d="M83.17,68.84a.83.83,0,0,0,.63.39.38.38,0,0,0,.35-.39c0-.24-.28-.39-.63-.39S83.05,68.61,83.17,68.84Z"/><path class="cls-1" d="M47.55,72.23c0,.35.2.55.47.47.71-.24.83-1.1.16-1.1A.62.62,0,0,0,47.55,72.23Z"/><path class="cls-1" d="M103.05,72c0,.2.2.28.39.16s.39-.31.39-.43-.16-.16-.39-.16A.43.43,0,0,0,103.05,72Z"/><path class="cls-1" d="M170.36,86.56a.43.43,0,0,0,.43.39c.2,0,.28-.2.16-.39s-.31-.39-.43-.39S170.36,86.32,170.36,86.56Z"/><path class="cls-1" d="M32,88.53c-.12.2,0,.39.39.39s.51-.2.39-.39-.31-.39-.39-.39S32.12,88.29,32,88.53Z"/><path class="cls-1" d="M94,92.19c0,.87,1,2.05,1.34,1.54.16-.28.12-.47-.08-.47s-.31-.35-.2-.79,0-.79-.43-.79A.57.57,0,0,0,94,92.19Z"/><path class="cls-1" d="M152.25,94.63c0,.35-.16.51-.39.39s-.39-.08-.39.12c0,.71,1.3.91,1.89.31s.47-.63-.28-1S152.25,94.11,152.25,94.63Z"/><path class="cls-1" d="M97.14,98.76c-.51.35-.51.43,0,.79.71.43,1.54-.2.94-.79A.7.7,0,0,0,97.14,98.76Z"/><path class="cls-1" d="M88.48,104c0,1.3.63,1.65,1.18.67.35-.67.31-.75-.2-.59s-.51.08-.35-.39,0-.63-.2-.63S88.48,103.52,88.48,104Z"/><path class="cls-1" d="M93.4,106.24c.12.2.31.39.43.39s.16-.2.16-.39a.4.4,0,0,0-.43-.39C93.36,105.85,93.28,106,93.4,106.24Z"/><path class="cls-1" d="M55.42,111a.38.38,0,0,0,.35.39.86.86,0,0,0,.63-.39c.12-.24,0-.39-.35-.39S55.42,110.73,55.42,111Z"/><path class="cls-1" d="M90.84,111.32c0,1,.24,1.06.51.24a.62.62,0,0,0-.12-.79C91,110.61,90.84,110.88,90.84,111.32Z"/><path class="cls-1" d="M146.35,115.33c0,.2.2.28.39.16s.39-.31.39-.43-.16-.16-.39-.16A.43.43,0,0,0,146.35,115.33Z"/><path class="cls-1" d="M92.81,116.08a.43.43,0,0,0,.43.39c.2,0,.28-.2.16-.39s-.31-.39-.43-.39S92.81,115.84,92.81,116.08Z"/><path class="cls-1" d="M51.29,125.13c-.12.2,0,.39.35.39s.63-.2.63-.39a.36.36,0,0,0-.35-.39A.74.74,0,0,0,51.29,125.13Z"/><path class="cls-1" d="M106.2,125.13a.38.38,0,0,0,.35.39.86.86,0,0,0,.63-.39c.12-.24,0-.39-.35-.39S106.2,124.9,106.2,125.13Z"/><path class="cls-1" d="M73.05,126a1.49,1.49,0,0,0,0,1c.12.39.31.35.91-.16.39-.35.63-.83.51-1A.83.83,0,0,0,73.05,126Z"/><path class="cls-1" d="M50.14,130.92c-.35.91.47,1.69.94.91a2.61,2.61,0,0,0,.39-1.1C51.48,130,50.42,130.13,50.14,130.92Z"/><path class="cls-1" d="M47.94,131.63c.28.31.35.59.2.59s-.12.24.12.51a.87.87,0,0,1,.08,1.06.93.93,0,0,0,.08,1.1c.67.79,1.38-.75,1.18-2.48-.16-1.18-.31-1.38-1.14-1.38S47.51,131.12,47.94,131.63Z"/><path class="cls-1" d="M85.73,133.71c0,.55.24.87.63.87.55,0,.59-.12.12-.71-.28-.35-.59-.75-.63-.83S85.73,133.24,85.73,133.71Z"/><path class="cls-1" d="M95.21,134c0,.43.12.55.24.24a.79.79,0,0,0,0-.75C95.29,133.36,95.17,133.6,95.21,134Z"/><path class="cls-1" d="M85.73,135.41c0,.2.2.28.39.16s.39-.31.39-.43-.16-.16-.39-.16A.41.41,0,0,0,85.73,135.41Z"/><path class="cls-1" d="M38.89,137.73c0,.2-.28.39-.67.39s-.55.12-.39.24c.39.39,2.28-.2,2.05-.63S38.89,137.22,38.89,137.73Z"/><path class="cls-1" d="M155.79,141.07a1.73,1.73,0,0,0,.87.59c.24,0,.2-.28-.08-.59a1.73,1.73,0,0,0-.87-.59C155.48,140.48,155.52,140.76,155.79,141.07Z"/><path class="cls-1" d="M35.15,141.39a1.46,1.46,0,0,0,1.22,1.85.59.59,0,0,0,0-1.18.92.92,0,0,1-.75-.71C35.46,140.72,35.46,140.72,35.15,141.39Z"/><path class="cls-1" d="M37.71,144.81a.42.42,0,0,0,.39.39.39.39,0,0,0,.39-.39.37.37,0,0,0-.39-.39A.39.39,0,0,0,37.71,144.81Z"/><path class="cls-1" d="M72.38,146.74c-.28.2-.35.43-.16.55s.75,0,1.14-.31c.59-.43.63-.55.16-.59A2.68,2.68,0,0,0,72.38,146.74Z"/><path class="cls-1" d="M43.26,147.14c-.43.28-.35.43.31.79,1.06.59,1.85.2,1.18-.59C44.24,146.7,44,146.66,43.26,147.14Z"/><path class="cls-1" d="M35.42,148.28c-.75.35-1.22.83-1.1,1.14s0,.51-.16.51-.39.43-.39,1,.12,1,.24,1a2.61,2.61,0,0,0,1.34-1.54c0-.2.43-.71,1-1.14.94-.75,1.34-1.69.71-1.61A7.69,7.69,0,0,0,35.42,148.28Z"/><path class="cls-1" d="M71,148.67c-.55.35-.71,2.72-.2,3s.47,1.3-.39,2.16a2.65,2.65,0,0,0-.79,1.38c0,.32-.16.59-.35.59s-.24.47,0,1.18.2,1.1,0,1-.35.2-.35.75.16,1,.39,1c.67,0,1.26-1.65,1.06-3s-.16-1.3,1.22-1.5a3.73,3.73,0,0,1,1.93.2.84.84,0,0,0,.83.16c.47-.28.24-2.36-.28-2.52a.37.37,0,0,1-.2-.55c.12-.2-.16-.75-.67-1.22l-.91-.83.91-.24c.87-.2.87-.24-.31-1.1C71.44,148.24,71.52,148.28,71,148.67Z"/><path class="cls-1" d="M127.45,150.32a.43.43,0,0,0,.43.39c.2,0,.28-.2.16-.39s-.31-.39-.43-.39S127.45,150.09,127.45,150.32Z"/><path class="cls-1" d="M44.83,152.25a1.73,1.73,0,0,1-.71,1.06c-.39.28-.51.51-.31.55a1.2,1.2,0,0,0,1.26-1.42C45,152,44.87,151.94,44.83,152.25Z"/><path class="cls-1" d="M35.74,153.47c0,.2.28.39.63.39s.47-.2.35-.39a.73.73,0,0,0-.63-.39A.36.36,0,0,0,35.74,153.47Z"/><path class="cls-1" d="M151.27,153.47c-.12.2,0,.39.16.39a.43.43,0,0,0,.43-.39c0-.24-.08-.39-.16-.39S151.38,153.24,151.27,153.47Z"/><path class="cls-1" d="M103.24,156.23a3.32,3.32,0,0,1,1,1.5.54.54,0,0,0,.59.47c.75,0,.75-.31-.12-1.73a2.39,2.39,0,0,0-1.57-1.22l-.91-.08Z"/><path class="cls-1" d="M117.22,156.82c-.28.35-.31.59-.08.59s.47-.28.63-.59.16-.59.08-.59A2.19,2.19,0,0,0,117.22,156.82Z"/><path class="cls-1" d="M35.34,157.61c0,.35.24.47.59.35s.47-.39.35-.59C36,156.82,35.34,157,35.34,157.61Z"/><path class="cls-1" d="M73.13,160c-.31.75-.24,1.14.16,1.57.79.79,1.14.71.91-.24a1.29,1.29,0,0,1,.35-1.22c.63-.51.39-1.14-.47-1.14C73.76,159,73.33,159.46,73.13,160Z"/><path class="cls-1" d="M163.47,159.77c.12.2.31.39.43.39s.16-.2.16-.39a.4.4,0,0,0-.43-.39C163.43,159.38,163.35,159.54,163.47,159.77Z"/><path class="cls-1" d="M118.24,160.68c.12.39.35.59.47.47s0-.43-.28-.71S118,160.13,118.24,160.68Z"/><path class="cls-1" d="M116.63,162.13c.12.2.31.39.43.39s.16-.2.16-.39a.4.4,0,0,0-.43-.39C116.59,161.74,116.51,161.9,116.63,162.13Z"/><path class="cls-1" d="M72.78,164.65c-.43.51-.43.67.12.87,1,.39,1.5,0,.91-.79C73.33,164.1,73.25,164.1,72.78,164.65Z"/><path class="cls-1" d="M69.86,164.73c-.24.39.35,1.65.63,1.34.12-.12,0-.55-.12-.94S70,164.53,69.86,164.73Z"/><path class="cls-1" d="M31.09,166.66a2.41,2.41,0,0,1-.2,1.26c-.43.67.31.67.87,0,.31-.39.28-.75-.16-1.3C31,165.87,31,165.87,31.09,166.66Z"/><path class="cls-1" d="M72.19,166.42a.43.43,0,1,0,.59-.12A.41.41,0,0,0,72.19,166.42Z"/><path class="cls-1" d="M157,166.66c0,.35.2.59.43.51a.62.62,0,0,0,.43-.51.63.63,0,0,0-.43-.51C157.17,166.07,157,166.31,157,166.66Z"/><path class="cls-1" d="M122.33,167.64a.43.43,0,0,0,.43.39c.2,0,.28-.2.16-.39s-.31-.39-.43-.39S122.33,167.41,122.33,167.64Z"/><path class="cls-1" d="M134.62,168.9c.2.59,2.68.94,2.68.39,0-.39-1.26-.87-2.28-.87C134.69,168.43,134.54,168.67,134.62,168.9Z"/><path class="cls-1" d="M149,172c-.12.43,0,.79.16.79s.35-.35.35-.79-.08-.79-.16-.79A1.78,1.78,0,0,0,149,172Z"/><path class="cls-1" d="M133.59,171.93a.43.43,0,1,0,.59-.12A.41.41,0,0,0,133.59,171.93Z"/><path class="cls-1" d="M110.45,172.72c-1.34,1.06-1.65,2.68-.63,3,.71.2.71.28.16.91-.94,1-.79,1.77.28,1.42a7.62,7.62,0,0,1,1.57-.31.76.76,0,0,0,.67-.71c0-.47.24-.63.79-.47,1.18.31,1.46-.94.47-2-.79-.75-.79-.83-.16-1.3.87-.63.35-1.14-.55-.63-.51.28-.83.24-1.14-.2S111.35,172,110.45,172.72Zm1.77,1.85a.88.88,0,0,1,0,.79c-.16.43-.35.47-.75.12s-.43-.59-.31-.79A.65.65,0,0,1,112.22,174.57Z"/><path class="cls-1" d="M184.72,172.37a.83.83,0,0,0,.63.39.38.38,0,0,0,.35-.39c0-.24-.28-.39-.63-.39S184.61,172.13,184.72,172.37Z"/><path class="cls-1" d="M102.81,174.1c-.12.55-.47,1-.79,1-.79,0-.75,3.31,0,3.94.51.43.75.39,1.38-.28a4.11,4.11,0,0,1,1.26-1c.39-.16.43-.28,0-.71a2,2,0,0,1-.51-1.26c0-.63.08-.67.59-.12a2,2,0,0,1,.59,1c0,.23.2.31.39.2s.31-.87.16-1.69c-.31-1.73-.12-1.5-1.61-1.85C103.2,173.12,103.05,173.19,102.81,174.1Z"/><path class="cls-1" d="M99.5,175.71c0,.31.2.59.39.59s.39-.28.39-.59-.16-.59-.39-.59S99.5,175.4,99.5,175.71Z"/><path class="cls-1" d="M188.54,176.23c-.39.28-.31.55.24,1.3.79,1,.87,1.14.87,2.09,0,.63,2.76,1.1,3.35.55.43-.39-.55-1.18-1.06-.87-.16.12-.31,0-.31-.2s-.31-.47-.67-.55-.28-.2.39-.24c1.1,0,1.57-1.22.51-1.22a.81.81,0,0,1-.71-.35C190.94,176.19,189.13,175.83,188.54,176.23Z"/><path class="cls-1" d="M99.43,178.15a3.79,3.79,0,0,0,.79,2.48c.08.08.28-.08.43-.35.35-.55-.31-2.79-.79-2.79C99.7,177.48,99.5,177.8,99.43,178.15Z"/><path class="cls-1" d="M144,177.88c0,.2.28.39.63.39s.47-.2.35-.39a.73.73,0,0,0-.63-.39A.35.35,0,0,0,144,177.88Z"/><path class="cls-1" d="M195.16,179.45c0,.2.28.28.59.16s.59-.31.59-.39-.28-.16-.59-.16S195.16,179.22,195.16,179.45Z"/><path class="cls-1" d="M197.4,179.73c-.51.47-.28,1.3.31,1.3.31,0,.59-.35.59-.79C198.3,179.45,197.87,179.22,197.4,179.73Z"/><path class="cls-1" d="M102.38,180.83c-1.5.63-1.65,1.34-.51,2.36.83.75,1.06,1.77.35,1.77-.2,0-.28-.2-.16-.39s0-.39-.16-.39-.43.28-.43.59a.61.61,0,0,0,.59.59,1,1,0,0,1,.83.59c.39,1,.79.63.83-.79,0-.75-.12-1.38-.31-1.38-.87,0-.24-.83.79-1a1.48,1.48,0,0,0,1.34-1.18,2,2,0,0,0,0-1.14C105.13,180.08,103.68,180.24,102.38,180.83Z"/><path class="cls-1" d="M195.59,180.87c0,.43.12.55.24.24a.79.79,0,0,0,0-.75C195.67,180.2,195.55,180.44,195.59,180.87Z"/><path class="cls-1" d="M139.26,181.3a2.54,2.54,0,0,0,.39.91c.35.51.43.51.79,0s.47-.47.83-.12.35.55-.16.75a1.21,1.21,0,0,0-.71.91c0,.43-.12.35-.35-.28a2.5,2.5,0,0,0-1-1.14c-.71-.28-1.42.59-1.14,1.34.08.31-.12.51-.51.51a1.87,1.87,0,0,0-1.14.43c-.31.31-.67.28-1.22-.08-1-.67-1.57-.16-.94.83s.63,1.61.2,1.46-.55.55-.28,1.42c.16.47.35.59.67.35.55-.43,1.18.12,1.38,1.18.16.87,0,.87-2.16.08-1.69-.67-2.28-1.81-1.18-2.24.35-.16.31-.31-.12-.63-1-.67-1.57-.51-1.57.51a2.17,2.17,0,0,1-.59,1.42c-.67.55-.79,2.6-.2,3,.83.51.39,2.13-.75,2.79a3.42,3.42,0,0,0-1.38,1.5c-.24.87.16,1.54.43.71.12-.24.35-.47.55-.47s.16.43,0,1c-.39,1.06.24,1.85.83.94.24-.39.35-.24.35.51,0,1.3-.28,1.38-1.42.31l-.83-.83-.24,1.18a4,4,0,0,0,0,1.81c.2.43.08.51-.39.35s-.63,0-.55,1.38c0,1.1.24,1.61.59,1.61s.47.24.31.79-.08.79.59.79.79-.16.59-.79-.08-.79,1.1-.79c.79,0,1.46-.2,1.54-.47s.43-.35.94-.16c.67.31.63.39-.43.83a3.05,3.05,0,0,1-1.73.28c-.35-.16-.47,0-.28.28s.75.39,1.5.2c1.22-.24,1.22-.24.94,1.06a2.37,2.37,0,0,1-.63,1.46c-.2.08-.2.51,0,1.1.51,1.46.47,1.61-.91,2.28-1.57.83-1.61.79-1.34-.31.16-.63,0-1-.35-1.18a1.1,1.1,0,0,1-.59-1c0-.63-.28-.75-1.93-.71-1.1,0-1.89.16-1.77.35a1.78,1.78,0,0,0,1.14.31c.51,0,1.06.16,1.18.39s-.2.39-.75.39c-.94,0-2.2.91-2.2,1.57a4.14,4.14,0,0,1-.24,1c-.16.35-.12.59.08.55.87-.12,2.16.59,2,1.06-.12.31,0,.55.16.55s.39.35.39.83-.2.75-.59.63a.58.58,0,0,0-.79.16c-.16.2,0,.47.39.63a.78.78,0,0,0,.94-.24c.2-.31.47-.28,1,.12s.83.47,1.3-.2.39-.83-.31-1.54a2.67,2.67,0,0,0-1.22-.79c-.24,0-.35-.35-.24-.79a1,1,0,0,0-.39-1.14c-.43-.24-.47-.39-.16-.59.55-.35,1.69.47,1.38,1-.12.2.12.35.51.35,1.14,0,3.66-.79,3.66-1.14a7.59,7.59,0,0,1,1.38-1.73,5.17,5.17,0,0,0,1.38-2.09c0-.59.12-.55.87.2.83.91.87.91,1.38.2a2,2,0,0,0,.39-1.38,2.07,2.07,0,0,1,.35-1.34,2.7,2.7,0,0,0,.55-1c0-.39-2.09-.71-2.56-.43-.75.51-2.56.39-2.56-.16a1,1,0,0,1,.39-.75c.63-.39,0-1-.94-1-.79,0-.91-.16-.79-1.34s0-1.3-.47-1.14-.55,0-.55-.43.35-.63.94-.63c.79,0,.91.2.87,1.26,0,.71.16,1.34.35,1.38s.39,0,.39-.2c0-.83.94-1.77,1.5-1.54.35.12.75.08.87-.12a2.61,2.61,0,0,1,1.69-.39H139l-1.18-.79a4.54,4.54,0,0,0-1.81-.79c-.47,0-.59-.28-.43-1,.16-1,.63-1.26,1-.63.28.43,2.6-.63,2.6-1.18a.4.4,0,0,1,.43-.35c.2,0,.31.16.16.35a.47.47,0,0,0,.2.63c.2.12.39-.12.39-.55,0-.87-1.1-1.38-2.13-1a1.36,1.36,0,0,1-1.22-.24c-.83-.67-1.81-2.76-1.3-2.76.2,0,.47.35.59.79.2.83.91,1.1.91.39,0-.24.43-.31,1-.16.71.16,1,.08,1-.35a.92.92,0,0,1,.55-.79c.75-.31,1.1-1.85.39-1.85-1.54,0,.12-1.65,1.73-1.73,1,0,1.06-.16.94-1.42-.2-1.61-.39-2.05-.91-1.77s-.43-.43.2-.94c.43-.35.59-.31.79.2.16.35.35.55.51.43s.51,0,.83.24c.51.39.59.31.35-.51a7.4,7.4,0,0,1-.28-1.69c0-.75-1.73-1-2.16-.28-.16.28-.47.28-1,0C140.36,180.95,139.26,180.91,139.26,181.3ZM136,186.62c-.12.28-.2.08-.2-.47s.08-.75.2-.51A2,2,0,0,1,136,186.62Zm1.18,3.54c-.12.31-.24.2-.24-.24s.08-.67.2-.51A.79.79,0,0,1,137.17,190.16Zm-2.55,1.69c.75,1,.59,2.16-.28,2.16-.63,0-2.95-2.13-2.95-2.72,0-.24.59-.43,1.3-.43A2.3,2.3,0,0,1,134.62,191.85ZM132.06,197c.94,1,.28,1.18-.71.24-.51-.47-.67-.83-.39-.83A2.14,2.14,0,0,1,132.06,197Zm-1.34,6.38a2.93,2.93,0,0,1-1.18,0c-.39-.12-.16-.2.47-.2S131,203.23,130.72,203.35ZM136.9,206c0,.12-.16.31-.39.43s-.39,0-.39-.16a.43.43,0,0,1,.39-.43C136.74,205.83,136.9,205.9,136.9,206Zm-2.09.48a.79.79,0,0,1-.75,0c-.31-.12-.2-.24.24-.24S135,206.34,134.81,206.46Zm-6.45,4.36a2,2,0,0,1-1,0c-.28-.12-.08-.2.47-.2S128.59,210.71,128.36,210.82Zm-.12,4.61c0,.43-.75.59-1,.24s0-.39.35-.39S128.24,215.35,128.24,215.43Z"/><path class="cls-1" d="M99.31,183a1,1,0,0,0,0,.83c.16.24-.08.75-.55,1.18-1,.91-1.06,1.54-.24,1.54a.37.37,0,0,1,.35.55c-.16.43.24.63,1.61.83a4.23,4.23,0,0,0,2.05,0c.35-.35-.71-1.42-1.46-1.42s-1.38-1-.83-1.34c.39-.24,0-2.6-.39-2.6A.7.7,0,0,0,99.31,183Z"/><path class="cls-1" d="M105.09,183c-.43.28-.43.59.08,1.77a3.42,3.42,0,0,0,.83,1.42c.39,0,1.22-.91,1.5-1.73.24-.55.16-.67-.31-.47s-.59,0-.51-.43C106.79,182.76,105.88,182.44,105.09,183Z"/><path class="cls-1" d="M132,184.18c-.12.2,0,.39.16.39a.43.43,0,0,0,.43-.39c0-.24-.08-.39-.16-.39S132.1,183.94,132,184.18Z"/><path class="cls-1" d="M143.59,185.16a.61.61,0,0,0,.59.59c.31,0,.59-.16.59-.35s-.28-.43-.59-.59S143.59,184.81,143.59,185.16Z"/><path class="cls-1" d="M131.78,185.55c0,.31.2.59.39.59s.39-.28.39-.59-.16-.59-.39-.59S131.78,185.24,131.78,185.55Z"/><path class="cls-1" d="M36.6,187.52c0,.63.08.87.2.47a2.92,2.92,0,0,0,0-1.18C36.68,186.58,36.6,186.85,36.6,187.52Z"/><path class="cls-1" d="M106.43,186.89c-.16.28-.2.59-.08.71.35.35.75-.16.55-.71S106.67,186.46,106.43,186.89Z"/><path class="cls-1" d="M99.39,188.39c-.16.12,0,.59.39,1,.59.67.59.71-.31.75-.71,0-.79.08-.24.24s.71.47.59,1.1,0,1,.75,1.14c.47.16.91.47.91.79,0,.63,1.1,1.61,1.42,1.3.12-.12,0-.59-.24-1-.39-.75-.31-.83.63-.83h1.06l-.91-1c-.55-.59-.71-1-.43-1s.43-.31.31-.79,0-.79.16-.79a.35.35,0,0,0,.35-.35c0-.2-.67-.28-1.54-.16s-1.61,0-1.77-.24C100.21,188.07,99.78,188,99.39,188.39Z"/><path class="cls-1" d="M37.23,188.78c-.39.08-.71.35-.71.55,0,.59,1.69.28,1.89-.35C38.57,188.51,38.41,188.47,37.23,188.78Z"/><path class="cls-1" d="M104.66,190c0,.51-.2.91-.43.91a.39.39,0,0,0-.39.39c0,.2.35.39.79.39.83,0,.94-.47.39-1.77C104.7,189.14,104.66,189.14,104.66,190Z"/><path class="cls-1" d="M97.18,190.63c-.35.43-.35.59,0,.75s.39.24,0,.24c-.63,0-.67,1.06-.08,1.42s1.42-.94,1.22-2S97.85,189.84,97.18,190.63Z"/><path class="cls-1" d="M96.63,193.9c-.47.47-.28,1.3.31,1.3s.75-.35.28-1.1C97,193.82,96.79,193.74,96.63,193.9Z"/><path class="cls-1" d="M27.71,195.43c.24,1.26.2,1.42-.39,1.22-.35-.16-.63-.08-.63.16s.39.35.91.28c.71-.08.87-.35.87-1.46,0-.79-.24-1.42-.51-1.54S27.47,194.29,27.71,195.43Z"/><path class="cls-1" d="M99.11,194.8a.39.39,0,0,0,.39.39c.2,0,.47.43.63,1,.2.79.35.91.79.55.87-.71.67-1.54-.47-1.93S99.11,194.33,99.11,194.8Z"/><path class="cls-1" d="M30.23,195.55c-.55,1.1-.51,1.61.2,1.61.39,0,.59-.28.51-.71s.12-.63.59-.55c.83.16.91-.55,0-.87S30.7,194.73,30.23,195.55Z"/><path class="cls-1" d="M97.93,195.36c0,.35.2.63.39.63a.36.36,0,0,0,.39-.35.76.76,0,0,0-.39-.63C98.13,194.88,97.93,195,97.93,195.36Z"/><path class="cls-1" d="M102.57,196.26a2,2,0,0,0,1,0c.24-.12,0-.2-.51-.2S102.3,196.14,102.57,196.26Z"/><path class="cls-1" d="M31.29,197c-.47.43-.31.91.31.91a.61.61,0,0,0,.59-.59C32.19,196.73,31.72,196.58,31.29,197Z"/><path class="cls-1" d="M24.72,197.91a2.63,2.63,0,0,0-.67,1.69c0,.71-.16,2.16-.24,3.27-.2,2.13.31,3.35,1.38,3.35.75,0,1-.63.28-.87-.28-.08-.28-.47,0-1.22s.63-1,1-.83c.67.24,1.22-.47.63-.83-.24-.16-.16-.47.2-.87.59-.55.67-1.54.16-1.22-.12.08-.55-.12-.91-.43-.83-.71-.2-1.18,1.14-.91a1.39,1.39,0,0,1,1.18,1.3c.2.79.51,1.14,1.06,1.14s.75-.2.59-.83,0-.91.55-1c.91-.24.59-.91-.47-.91-.39,0-.75-.12-.75-.31s-.59-.31-1.26-.31a19.38,19.38,0,0,1-2.28-.31A2.36,2.36,0,0,0,24.72,197.91Zm5.11,1.22a.43.43,0,0,1-.43.39c-.2,0-.28-.2-.16-.39s.31-.39.43-.39S29.83,198.9,29.83,199.13Z"/><path class="cls-1" d="M102.85,199.57c-.43.67,0,.79.83.16.67-.51.67-.55.08-.59A1.08,1.08,0,0,0,102.85,199.57Z"/><path class="cls-1" d="M135.17,202.13c-.51.75-.59,1.14-.28,1.46s.43.24.43-.24a.54.54,0,0,1,.71-.59c.43.08.71-.16.79-.79C137,200.79,136.11,200.87,135.17,202.13Z"/><path class="cls-1" d="M29.44,202.28a.42.42,0,0,0,.39.39.39.39,0,0,0,.39-.39.37.37,0,0,0-.39-.39A.4.4,0,0,0,29.44,202.28Z"/><path class="cls-1" d="M140.83,203.9c-.31.75-.67,1-1.22.87s-.75,0-.75.79a1.69,1.69,0,0,0,.47,1.3c.31.2.35.08.2-.39s-.12-.63.47-.43c.87.28,2.87-1.85,2.56-2.72S141.31,202.76,140.83,203.9Z"/><path class="cls-1" d="M26.68,204.25a.38.38,0,0,0,.35.39.86.86,0,0,0,.63-.39c.12-.24,0-.39-.35-.39S26.68,204,26.68,204.25Z"/><path class="cls-1" d="M102.46,204.25c.12.2.31.39.43.39s.16-.2.16-.39a.4.4,0,0,0-.43-.39C102.42,203.86,102.34,204,102.46,204.25Z"/><path class="cls-1" d="M30.46,204.84c-.28.71-1.46.79-2.13.12-.28-.28-.47-.31-.47-.08a1.39,1.39,0,0,0,.39.79c.24.24,0,.83-.83,1.69-.63.71-1.06,1.42-.91,1.57s.35,0,.43-.28a.77.77,0,0,1,.59-.47c.24,0,.75-.43,1.18-1s1-1,1.26-1,.71-.43.94-1,.31-1,.12-1S30.62,204.53,30.46,204.84Z"/><path class="cls-1" d="M22.87,207.36c.24.71.59,1.06.79.87a1.25,1.25,0,0,0-.59-1.93C22.47,206.18,22.47,206.34,22.87,207.36Z"/><path class="cls-1" d="M130,206.61c-.12.2.12.39.55.39s.83-.2.83-.39-.24-.39-.55-.39A1,1,0,0,0,130,206.61Z"/><path class="cls-1" d="M24.32,208.58a.42.42,0,0,0,.39.39.39.39,0,0,0,.39-.39.37.37,0,0,0-.39-.39A.39.39,0,0,0,24.32,208.58Z"/><path class="cls-1" d="M25.11,210c0,.31.2.47.39.35a.48.48,0,0,0,.2-.63C25.35,209.17,25.11,209.29,25.11,210Z"/><path class="cls-1" d="M26.6,210.63c-1.3.43-1.42,1.1-.31,1.38.83.24,1.1.91.35.91-.2,0-.28.16-.16.39a1.23,1.23,0,0,0,.94.39c.59,0,.71-.31.71-1.77,0-1-.12-1.77-.24-1.73A7.09,7.09,0,0,0,26.6,210.63Z"/><path class="cls-1" d="M21.17,213.3c0,.2.28.39.63.39s.47-.2.35-.39a.73.73,0,0,0-.63-.39A.36.36,0,0,0,21.17,213.3Z"/><path class="cls-1" d="M132.18,213.07a6.47,6.47,0,0,0,1.3.91,2,2,0,0,0,2.16.31c1.38-.63.79-1.18-1.42-1.26A6.33,6.33,0,0,0,132.18,213.07Z"/><path class="cls-1" d="M124.3,214.09a.42.42,0,0,0,.39.39.39.39,0,0,0,.39-.39.37.37,0,0,0-.39-.39A.4.4,0,0,0,124.3,214.09Z"/><path class="cls-1" d="M130.68,215.23c.12.71,0,1.34-.16,1.46a.43.43,0,0,0-.12.59c.16.2-.2.35-.79.35a4.46,4.46,0,0,0-1.77.47,1.2,1.2,0,0,1-1.57,0c-1.06-.67-2.36-.59-2.36.12a.57.57,0,0,0,.47.59c.28,0,.08.28-.39.63a1.76,1.76,0,0,0-.83,1.26c0,.39.12.47.24.16a.84.84,0,0,1,.71-.47.86.86,0,0,1,.71.47c.12.28.24.12.24-.31,0-1.3,2.83-1.57,2.87-.31a5.79,5.79,0,0,0,.12.75c.47,1.5.55,1.5,1,.28.31-.67.67-1.26.87-1.26s.24-.43.12-1c-.2-.83-.12-1,.63-1s.91-.2.91-1.85c0-1.18-.2-1.89-.55-2S130.56,214.29,130.68,215.23Z"/><path class="cls-1" d="M123.52,214.8c0,.2.28.51.63.63s.55,0,.47-.24C124.42,214.6,123.52,214.29,123.52,214.8Z"/><path class="cls-1" d="M21.57,215.51c0,.63,1.1,2,1.38,1.65.16-.16-.08-.67-.55-1.14S21.57,215.31,21.57,215.51Z"/><path class="cls-1" d="M133.36,216.85a.42.42,0,0,0,.39.39.39.39,0,0,0,.39-.39.37.37,0,0,0-.39-.39A.38.38,0,0,0,133.36,216.85Z"/><path class="cls-1" d="M22.35,219.13c0,.47.75,1,1,.75.08-.08-.08-.39-.43-.67S22.35,218.89,22.35,219.13Z"/><path class="cls-1" d="M122.3,222.48c0,.28-.08,1-.16,1.61-.16,1.06-.12,1.1.51.39a2.43,2.43,0,0,0,.71-1.42C123.36,222.28,122.33,221.73,122.3,222.48Z"/><path class="cls-1" d="M124.22,222.16c-.28.55.43,3,.87,3s.47-.71-.16-2.16C124.7,222.32,124.34,222,124.22,222.16Z"/><path class="cls-1" d="M128.63,224.13c.28.35.59.51.67.43.28-.28-.28-1-.75-1C128.32,223.54,128.32,223.78,128.63,224.13Z"/><path class="cls-1" d="M127.85,225.74c0,.31.2.47.39.35a.73.73,0,0,0,.39-.63.36.36,0,0,0-.39-.35C128,225.11,127.85,225.39,127.85,225.74Z"/><path class="cls-1" d="M121.55,226.85a.88.88,0,0,1-.47.75c-.39.16-.39.28,0,.59s.39.43-.12.87c-.35.31-.47.63-.24.75s.28.83,0,1.81-.2,1.65.12,1.85c1,.67,1.22.35,1.06-1.77a2.91,2.91,0,0,1,.28-1.57c.31-.39.35-1.77.16-3.42C122.3,226.06,121.55,226.22,121.55,226.85Z"/><path class="cls-1" d="M154.61,227.12c0,.2.2.28.39.16s.39-.31.39-.43-.16-.16-.39-.16A.43.43,0,0,0,154.61,227.12Z"/><path class="cls-1" d="M124.38,229.13c.24.71,1.1.83,1.1.16a.63.63,0,0,0-.63-.63C124.5,228.66,124.3,228.85,124.38,229.13Z"/><path class="cls-1" d="M118.4,235.74a.42.42,0,0,0,.39.39.39.39,0,0,0,.39-.39.37.37,0,0,0-.39-.39A.4.4,0,0,0,118.4,235.74Z"/><path class="cls-1" d="M120.76,240a.86.86,0,0,0,.39.63c.24.12.39,0,.39-.35s-.16-.63-.39-.63A.38.38,0,0,0,120.76,240Z"/><path class="cls-1" d="M119.19,240.66c.47.59,1.18.47,1.18-.24,0-.2-.39-.35-.83-.35C118.83,240.07,118.79,240.15,119.19,240.66Z"/><path class="cls-1" d="M118.4,241.68c0,.2.2.28.39.16s.39-.31.39-.43-.16-.16-.39-.16A.43.43,0,0,0,118.4,241.68Z"/><path class="cls-1" d="M117.61,245.07a2.87,2.87,0,0,0,.39.91c.31.51.39.51.39-.08A1.13,1.13,0,0,0,118,245C117.81,244.87,117.61,244.87,117.61,245.07Z"/></svg>